<svg width="96" height="160" viewBox="0 0 96 160" fill="none" xmlns="http://www.w3.org/2000/svg">
<path d="M64 72H32C27.7565 72 23.6869 70.3143 20.6863 67.3137C17.6857 64.3131 16 60.2435 16 56C16 51.7565 17.6857 47.6869 20.6863 44.6863C23.6869 41.6857 27.7565 40 32 40H72C74.1217 40 76.1566 40.8429 77.6569 42.3431C79.1571 43.8434 80 45.8783 80 48C80 50.1217 80.8428 52.1566 82.3431 53.6569C83.8434 55.1571 85.8783 56 88 56C90.1217 56 92.1566 55.1571 93.6569 53.6569C95.1572 52.1566 96 50.1217 96 48C96 41.6348 93.4714 35.5303 88.9706 31.0294C84.4697 26.5286 78.3652 24 72 24H56V8C56 5.87827 55.1571 3.84344 53.6569 2.34315C52.1566 0.842854 50.1217 0 48 0C45.8783 0 43.8434 0.842854 42.3431 2.34315C40.8429 3.84344 40 5.87827 40 8V24H32C23.5131 24 15.3737 27.3714 9.37258 33.3726C3.37142 39.3737 0 47.5131 0 56C0 64.4869 3.37142 72.6263 9.37258 78.6274C15.3737 84.6286 23.5131 88 32 88H64C68.2435 88 72.3131 89.6857 75.3137 92.6863C78.3143 95.6869 80 99.7565 80 104C80 108.243 78.3143 112.313 75.3137 115.314C72.3131 118.314 68.2435 120 64 120H24C21.8783 120 19.8434 119.157 18.3431 117.657C16.8429 116.157 16 114.122 16 112C16 109.878 15.1571 107.843 13.6569 106.343C12.1566 104.843 10.1217 104 8 104C5.87827 104 3.84344 104.843 2.34315 106.343C0.842856 107.843 0 109.878 0 112C0 118.365 2.52856 124.47 7.02944 128.971C11.5303 133.471 17.6348 136 24 136H40V152C40 154.122 40.8429 156.157 42.3431 157.657C43.8434 159.157 45.8783 160 48 160C50.1217 160 52.1566 159.157 53.6569 157.657C55.1571 156.157 56 154.122 56 152V136H64C72.4869 136 80.6262 132.629 86.6274 126.627C92.6286 120.626 96 112.487 96 104C96 95.5131 92.6286 87.3737 86.6274 81.3726C80.6262 75.3714 72.4869 72 64 72Z" fill="#FECC4E"/>
</svg>
