<svg width="21" height="81" viewBox="0 0 21 81" fill="none" xmlns="http://www.w3.org/2000/svg">
<path d="M15.8992 22.7465C14.3476 23.9427 13.1848 25.2573 12.3701 26.7497C13.6884 27.5088 14.3735 28.7345 14.866 30.0381C15.7807 29.5937 16.6398 28.9901 17.5175 28.1865C19.0913 26.7459 20.0801 25.335 20.6244 23.7538C20.7577 23.3687 20.8429 22.9243 20.8726 22.4651C20.9059 21.9726 20.8022 21.6171 20.5689 21.4023C20.2949 21.1542 19.8097 21.069 19.232 21.169C18.1063 21.3579 17.0472 21.8615 15.8992 22.7465Z" fill="#EBB748"/>
<path d="M8.40063 22.5465C8.57839 22.7576 8.75987 22.9576 8.94133 23.1613C9.31905 23.5834 9.71159 24.0204 10.056 24.5092C10.2856 24.8388 10.4966 25.1795 10.6966 25.5165C11.1669 24.6314 11.7594 23.7575 12.5778 23.0502C13.0592 22.6354 13.1148 22.3725 12.8704 21.7281C12.8444 21.6615 12.8259 21.5985 12.8074 21.5319L12.7926 21.48C12.4223 20.4283 12.1075 19.6507 11.4261 19.1248C10.8818 18.7027 10.3781 18.7471 9.8819 19.2544C9.00055 20.158 8.65245 21.3615 8.40434 22.5502L8.40063 22.5465Z" fill="#EBB748"/>
<path d="M12.3813 17.3138C13.7145 18.0841 14.3996 19.3321 14.8736 20.5948C17.1992 19.4543 18.9804 17.6656 20.2876 15.1475C20.7394 14.2809 20.932 13.5218 20.8912 12.7627C20.8653 12.2405 20.5505 11.7998 20.1728 11.7554C19.7692 11.7073 19.3433 11.7221 18.9471 11.7998C18.599 11.8665 18.262 11.9739 17.9435 12.0998C17.1844 12.6923 16.3623 13.2107 15.4735 13.6551C14.1404 14.7438 13.122 15.9474 12.3813 17.3101V17.3138Z" fill="#EBB748"/>
<path d="M8.48928 13.0627C8.37819 13.4293 8.37821 13.4368 8.73741 13.8108C8.94479 14.0293 9.10032 14.2144 9.1966 14.3588C9.67431 15.0476 10.1224 15.7031 10.5742 16.3585L10.7038 16.5474C11.363 15.3994 12.148 14.3848 13.0479 13.5145C12.8183 12.3888 12.4776 11.2556 11.7074 10.3483C11.4259 10.0187 11.1074 9.84098 10.7816 9.82617C10.7668 9.82617 10.7482 9.82617 10.7297 9.82617C10.7149 9.82617 10.7001 9.82617 10.6853 9.82617C10.626 9.82617 10.5705 9.83728 10.5112 9.8521C10.4038 9.88913 10.3038 9.92616 10.2076 9.97059C10.0261 10.0706 9.85205 10.2261 9.69281 10.4224C9.0929 11.1815 8.77813 12.1036 8.48928 13.059V13.0627Z" fill="#EBB748"/>
<path d="M8.61507 4.72324C8.7669 4.85285 8.86689 4.97505 8.94836 5.07504L9.02241 5.16391C9.64824 5.8527 10.1889 6.59334 10.6666 7.42284C10.6777 7.44136 10.6888 7.45987 10.6999 7.47839C10.7666 7.40062 10.8259 7.31915 10.8925 7.21176C11.485 6.22302 12.1923 5.33796 13.044 4.51586C12.8292 3.44195 12.5145 2.35322 11.8146 1.49409C11.5554 1.17191 11.1554 0.794189 10.7221 0.794189H10.7147C10.2666 0.797893 9.85563 1.20524 9.589 1.54963C9.01501 2.28656 8.72985 3.20494 8.46322 4.15665C8.36694 4.50105 8.37065 4.51586 8.61136 4.72694L8.61507 4.72324Z" fill="#EBB748"/>
<path d="M13.47 7.08951C13.0886 7.57462 12.822 8.0153 12.5146 8.51893C13.8404 9.33733 14.4329 10.6853 14.8624 11.9295C15.4735 11.4629 16.1993 10.9741 17.0436 10.6001C18.2323 9.63358 19.2247 8.45598 20.0172 7.0747C20.6541 5.96375 20.9208 5.07499 20.8801 4.18623C20.8504 3.52337 20.4986 3.16787 19.8358 3.13454C19.0988 3.0938 18.3471 3.29377 17.4065 3.77889C15.9141 4.54174 14.5884 5.65639 13.4663 7.09321L13.47 7.08951Z" fill="#EBB748"/>
<path d="M13.037 40.5588C12.8778 39.533 12.5297 38.6035 12.0039 37.7851C11.6595 37.2482 11.2595 36.926 10.867 36.863C10.8114 36.863 10.7596 36.8667 10.7152 36.8704C10.6633 36.8704 10.5893 36.8778 10.5152 36.8778C10.1412 36.9667 9.75975 37.2889 9.42646 37.8036C8.86728 38.6665 8.58954 39.6663 8.39697 40.5588C8.61176 40.8217 8.83024 41.0661 9.04503 41.3142C9.45237 41.7771 9.87087 42.2548 10.2449 42.7807C10.4189 43.0288 10.5781 43.2843 10.7226 43.5398C11.3632 42.4141 12.1372 41.4179 13.037 40.5588Z" fill="#EBB748"/>
<path d="M20.8878 40.1921C20.8581 39.6663 20.5545 39.3034 20.0546 39.1923C19.525 39.0775 18.9732 39.1553 18.2067 39.4552C16.481 40.1292 14.9553 41.3031 13.5407 43.0436C13.0556 43.6398 12.6112 44.3175 12.2705 44.9618C13.5148 45.7395 14.0739 47.0356 14.4739 48.2465C14.4813 48.2465 14.4887 48.2391 14.4998 48.2354C17.0365 47.0319 18.9843 45.1322 20.3063 42.5807C20.7359 41.7475 20.9248 40.9624 20.8841 40.1884L20.8878 40.1921Z" fill="#EBB748"/>
<path d="M9.08576 32.7192C9.39682 33.0562 9.70786 33.4117 9.98189 33.8079C10.2041 34.1264 10.3966 34.456 10.5781 34.7744C10.6225 34.8522 10.667 34.9263 10.7077 35.004C10.8781 34.7041 11.0706 34.3782 11.2965 34.0597C11.6076 33.619 11.952 33.2191 12.2964 32.8303C12.5334 32.534 12.7778 32.2526 13.0333 31.9823C12.8148 30.7232 12.4371 29.7715 11.852 29.0012C11.515 28.5568 11.141 28.2976 10.7929 28.2569C10.7522 28.2569 10.7151 28.2569 10.6781 28.2532C10.3004 28.2643 9.89674 28.5494 9.54494 29.0531C9.01539 29.8011 8.65986 30.701 8.40063 31.9526H8.40434C8.64134 32.2007 8.86727 32.4563 9.08576 32.7155V32.7192Z" fill="#EBB748"/>
<path d="M4.89373 4.26776C3.88277 3.60859 2.76442 3.01609 1.47572 3.1494C0.938762 3.20495 0.761022 3.43454 0.65363 3.76042C0.420331 4.49365 0.535098 5.2602 1.03873 6.32301C1.84602 8.03017 2.98662 9.4781 4.44566 10.6446C4.46418 10.652 4.47899 10.6594 4.49751 10.6705C5.24555 11.0408 5.94542 11.463 6.59717 11.9444C7.07488 10.6705 7.71924 9.41144 9.01905 8.64118C7.99698 6.85626 6.61199 5.39352 4.89002 4.27146L4.89373 4.26776Z" fill="#EBB748"/>
<path d="M9.93745 51.7793C10.2078 52.1644 10.4559 52.5644 10.6929 52.9606C11.1336 52.1385 11.6631 51.3645 12.3815 50.7387C13.0407 50.1647 13.137 49.7352 12.7963 48.9056L12.7222 48.7242C12.3667 47.8502 12.0594 47.0948 11.4373 46.5801C11.2447 46.4171 11.0929 46.3283 10.9744 46.2838C10.9188 46.2986 10.8596 46.306 10.8003 46.3097C10.73 46.3097 10.6596 46.3097 10.5929 46.2949C10.5892 46.2949 10.5855 46.2986 10.5781 46.3023C10.1115 46.569 9.73008 46.8837 9.47456 47.2059C8.87094 47.9762 8.61171 48.9575 8.40063 49.9907C8.7154 50.3128 9.01166 50.6387 9.28199 50.972C9.50788 51.2238 9.73378 51.4905 9.93745 51.7793Z" fill="#EBB748"/>
<path d="M4.01621 55.3231C5.5382 56.6785 6.75655 57.3599 8.09709 57.5969C9.01177 57.7598 9.46357 57.5228 9.86721 56.634C9.86351 56.1971 9.83387 55.4564 9.57465 54.8602C9.57095 54.8491 9.56353 54.838 9.55982 54.8269C9.19691 53.8678 8.66738 52.9642 7.96008 52.0903C7.8638 51.9829 7.76379 51.8755 7.66381 51.7681C7.46384 51.5496 7.26017 51.3348 7.07131 51.1089C6.86764 50.9053 6.65286 50.7053 6.43067 50.5053C5.2901 49.4869 3.88288 48.4167 2.10536 48.1982C1.97946 48.1834 1.86097 48.176 1.74988 48.176C1.36845 48.176 1.0685 48.2649 0.879642 48.4315C0.672266 48.6204 0.568555 48.9426 0.579665 49.3944C0.587071 49.8647 0.664832 50.3313 0.805552 50.7423C1.38695 52.4235 2.43866 53.9233 4.01991 55.3268L4.01621 55.3231Z" fill="#EBB748"/>
<path d="M12.7002 57.6488C12.7002 57.6488 12.7372 57.6488 12.7557 57.6488C13.563 57.6488 14.3592 57.4007 15.3257 56.8489C17.1032 55.8306 18.5733 54.4271 19.6917 52.6792C20.336 51.6719 20.9249 50.561 20.8841 49.2612C20.8619 48.6057 20.4842 48.202 19.8768 48.1835C19.5843 48.1724 19.2807 48.1983 18.9881 48.2613C17.8253 48.5057 16.6921 49.113 15.4331 50.1647C13.6889 51.6238 12.3002 54.453 11.6484 56.7193C12.0076 57.6414 12.4521 57.6488 12.7002 57.6525V57.6488Z" fill="#EBB748"/>
<path d="M5.28261 47.2874C5.7381 47.6207 6.34172 48.0429 6.9083 48.4169C7.35268 47.1171 7.95999 45.8284 9.21536 45.0285C8.25624 43.1769 6.84163 41.629 4.90117 40.307C3.91243 39.6367 2.97553 39.2627 2.03123 39.1701C1.93494 39.159 1.84237 39.1553 1.75349 39.1553C1.37206 39.1553 1.06841 39.2441 0.879549 39.4182C0.668469 39.6108 0.561087 39.9366 0.56479 40.3847C0.568493 40.7736 0.635154 41.1772 0.753655 41.5475C1.44615 43.7213 2.88296 45.5469 5.28261 47.2948V47.2874Z" fill="#EBB748"/>
<path d="M1.77565 21.1135C1.39793 21.1135 1.08684 21.2209 0.872055 21.432C0.586911 21.7134 0.483216 22.1763 0.586904 22.7355C0.701702 23.3613 0.87576 23.9316 1.10536 24.4316C1.95708 26.3091 3.34205 27.9162 5.21585 29.2086C5.64542 29.5049 6.11944 29.7715 6.57863 30.027C6.85637 29.4345 7.11928 28.879 7.44145 28.331C7.83028 27.6644 8.37837 27.1312 9.07456 26.7423C8.48576 25.6351 7.68957 24.6241 6.65639 23.6687C5.1492 22.2689 3.7494 21.4727 2.25703 21.1654C2.08669 21.132 1.92748 21.1135 1.77565 21.1135Z" fill="#EBB748"/>
<path d="M0.582986 31.1341C0.549658 31.4711 0.575607 31.8488 0.657077 32.1932C0.94222 33.4301 1.57174 34.5892 2.63084 35.8334C3.89732 37.3221 5.16009 38.3553 6.55247 39.0404C7.00796 37.7591 7.65235 36.4148 8.9966 35.6112C8.63739 34.9891 8.23002 34.4003 7.77454 33.8522C7.7375 33.8152 7.70416 33.7745 7.66713 33.7374C7.48567 33.5375 7.30053 33.3375 7.12648 33.1338C6.35623 32.3451 5.47487 31.6452 4.48242 31.0415C3.45294 30.4157 2.61601 30.1343 1.7791 30.1343C1.75318 30.1343 1.73098 30.1343 1.70505 30.1343C0.975532 30.1491 0.65335 30.4379 0.586693 31.1304L0.582986 31.1341Z" fill="#EBB748"/>
<path d="M0.70909 12.2444C0.586886 12.8295 0.568368 13.3405 0.660947 13.7183C1.15347 15.718 2.36069 17.4696 4.45298 19.2323C5.1825 19.847 5.87127 20.2988 6.56747 20.6246C7.04517 19.3471 7.67099 18.0509 9.04856 17.2992C8.21165 15.8513 7.21183 14.6552 6.02682 13.6886C5.92684 13.6405 5.82312 13.5923 5.72314 13.5368C4.93436 13.1183 4.20116 12.648 3.52719 12.1222C2.91987 11.8482 2.34214 11.7148 1.77926 11.7148C1.69409 11.7148 1.60894 11.7148 1.52377 11.726C1.40156 11.7334 0.805372 11.8 0.70909 12.2444Z" fill="#EBB748"/>
<path d="M20.8839 31.1601C20.8579 30.6675 20.5543 30.3009 20.0729 30.1898C19.5026 30.0565 18.9138 30.1528 18.0361 30.5231C16.6659 31.1008 15.455 31.9488 14.3626 33.1005C14.1552 33.3486 13.9441 33.593 13.7293 33.8337C13.6923 33.8745 13.659 33.9152 13.622 33.9522C13.559 34.0337 13.4924 34.1152 13.4294 34.1966C13.1146 34.604 12.8739 35.0224 12.6147 35.4668C12.5814 35.5298 12.5444 35.589 12.5073 35.652C13.859 36.4852 14.4589 37.7702 14.8958 39.0367C16.9881 37.9887 18.6472 36.4074 19.9618 34.2115C20.6469 33.0672 20.932 32.1266 20.8839 31.1601Z" fill="#EBB748"/>
<path d="M11.5887 59.2968H9.62231V80.9232H11.5887V59.2968Z" fill="#EBB748"/>
</svg>
