<?xml version="1.0" encoding="UTF-8"?><svg id="Layer_2" xmlns="http://www.w3.org/2000/svg" viewBox="0 0 179.31 342.02"><defs><style>.cls-1{fill:#ebb749;}.cls-2{fill:#ebb748;}.cls-3{fill:#fff;}.cls-4{fill:#fecc4e;}.cls-5{fill:#916d49;}.cls-6{fill:#bb974e;}.cls-7{opacity:.42;}.cls-8{opacity:.51;}.cls-9{opacity:.5;}</style></defs><g id="Layer_1-2"><polygon class="cls-2" points="0 .32 42.14 341.79 148.66 341.94 179.31 .57 0 .32"/><polygon class="cls-5" points="33.59 272.52 42.14 341.79 148.66 341.94 154.88 272.68 33.59 272.52"/><polygon class="cls-1" points="0 .32 3.14 25.77 177.03 26.01 179.31 .57 0 .32"/><g class="cls-7"><rect class="cls-6" x="8.22" y=".27" width="6.62" height="25.59" transform="translate(-1.28 1.25) rotate(-5.89)"/></g><g class="cls-7"><rect class="cls-6" x="25.53" y=".33" width="6.62" height="25.51" transform="translate(-.83 2) rotate(-3.91)"/></g><g class="cls-7"><rect class="cls-6" x="41.95" y=".38" width="6.62" height="25.46" transform="translate(-.41 1.52) rotate(-1.92)"/></g><g class="cls-7"><rect class="cls-6" x="54.93" y=".41" width="6.62" height="25.46" transform="translate(-.31 1.45) rotate(-1.42)"/></g><g class="cls-7"><rect class="cls-6" x="68.91" y=".43" width="6.62" height="25.45" transform="translate(-.09 .53) rotate(-.42)"/></g><g class="cls-7"><rect class="cls-6" x="76.92" y="9.86" width="25.45" height="6.62" transform="translate(76.35 102.79) rotate(-89.92)"/></g><g class="cls-7"><rect class="cls-6" x="93.56" y="9.89" width="25.45" height="6.62" transform="translate(92.94 119.46) rotate(-89.92)"/></g><g class="cls-7"><rect class="cls-6" x="123.06" y=".51" width="6.62" height="25.45" transform="translate(-.09 .93) rotate(-.42)"/></g><g class="cls-7"><rect class="cls-6" x="129.61" y="9.94" width="25.45" height="6.62" transform="translate(127.65 155.44) rotate(-89.42)"/></g><g class="cls-7"><rect class="cls-6" x="156.68" y=".55" width="6.62" height="25.45" transform="translate(-.19 2.57) rotate(-.92)"/></g><polygon class="cls-3" points="137.81 223.87 146.04 84.03 42.95 83.89 55.62 223.76 137.81 223.87"/><polygon class="cls-4" points="65.18 109.67 71.96 200.81 120.68 200.88 126.23 109.75 65.18 109.67"/><g class="cls-9"><rect class="cls-6" x="51.21" y="272.44" width="5.51" height="69.47" transform="translate(-22.99 4.94) rotate(-4.32)"/><rect class="cls-6" x="64.86" y="272.56" width="5.52" height="69.29" transform="translate(-7.86 1.84) rotate(-1.47)"/><rect class="cls-6" x="81.38" y="272.59" width="5.52" height="69.27" transform="translate(-2.2 .61) rotate(-.41)"/><rect class="cls-6" x="66.66" y="304.48" width="69.27" height="5.52" transform="translate(-206.94 405.48) rotate(-89.43)"/><rect class="cls-6" x="82.64" y="304.5" width="69.27" height="5.52" transform="translate(-191.14 421.48) rotate(-89.43)"/><rect class="cls-6" x="100.09" y="304.51" width="69.28" height="5.52" transform="translate(-174.98 436.29) rotate(-88.94)"/></g><g class="cls-8"><path class="cls-3" d="m108.73,138.69c-11.35-7.32-22.74,10.3-11.38,17.63,11.35,7.32,22.74-10.3,11.38-17.63Z"/></g><g class="cls-8"><path class="cls-3" d="m100.27,177.25c-7.67-4.95-15.37,6.96-7.69,11.92,7.67,4.95,15.37-6.96,7.69-11.92Z"/></g></g></svg>