<?xml version="1.0" encoding="UTF-8"?><svg id="Layer_2" xmlns="http://www.w3.org/2000/svg" viewBox="0 0 113.49 364.71"><defs><style>.cls-1{fill:#ebb748;}.cls-2{fill:#fff;}.cls-3{fill:#916d49;}</style></defs><g id="Layer_1-2"><path class="cls-2" d="m94.29,120.41c1.46-1.73,2.35-3.97,2.35-6.4h0c0-5.47-4.48-9.95-9.95-9.95H26.78c-5.47,0-9.95,4.48-9.95,9.95h0c0,3.01,1.36,5.71,3.49,7.54-5.15,2.72-19.43,11.89-20.01,30.36-.7,22.55,0,173.39,0,173.39,0,0,0,27.49,15.51,33.83,15.51,6.34,63.43,8.46,81.76,0s15.51-29.6,15.51-29.6l.16-165.63s3.82-38.03-18.94-43.48h-.02Z"/><path class="cls-1" d="m89.54,344.57c14.68-6.77,12.42-23.71,12.42-23.71l.1-105.93c-9.68.47-36.71,1.12-50.91-5.29-12.31-5.56-30.2-8.88-39.73-10.37-.15,39.97.21,118.2.21,118.2,0,0,0,22.02,12.42,27.1,12.42,5.08,50.81,6.77,65.49,0h0Z"/><rect class="cls-3" x="31.28" y="54.02" width="50.92" height="83.71" rx="7" ry="7" transform="translate(-39.82 151.44) rotate(-89.3)"/><path class="cls-3" d="m31.18,91.4s.78-64.09.8-66.19C31.98,25.21,32.29-.3,57.31,0c25.02.3,25.82,23.79,25.82,23.79l-.83,68.23-51.12-.62Zm21.14-45.59c-5.75-.48-6.51,8.46-.75,8.94,5.75.48,6.51-8.46.75-8.94Zm.59-28.37c-10.23-.86-11.58,15.04-1.33,15.9,10.23.86,11.58-15.04,1.33-15.9Z"/></g></svg>