<?xml version="1.0" encoding="UTF-8"?><svg id="Layer_2" xmlns="http://www.w3.org/2000/svg" viewBox="0 0 182.15 197.11"><defs><style>.cls-1{fill:#ebb748;}.cls-2{fill:#ffcc4e;}.cls-3{fill:#bb974e;}</style></defs><g id="Layer_1-2"><path class="cls-1" d="m168.7,105.92c10.66-10.16,11.38-30.35-1.76-39.27,9.58-10.08,12.55-26.36,7.14-39.17,9.7-2.89,11.03-19.57-1.22-21.8-6.21-1.13-10.47,2.46-12.11,7.07-3.06-1.64-6.57-2.88-10.56-3.6-5.36-.97-10.24-.77-14.58.33-.74-4.14-3.57-7.83-8.96-8.81-13.01-2.36-17.75,15.23-8.47,21.17-6.26,9.04-8.24,21.19-5.15,31.72-17.94,2.62-25.18,25.1-16.54,39.02-19.91,12.03-20.37,49.34,9.15,54.7,7.26,1.32,13.48.16,18.56-2.57,3.79,4.34,9.22,7.62,16.49,8.94,29.32,5.32,42.1-29.39,28.03-47.72h-.02Z"/><path class="cls-2" d="m146.58,154.64c-1.94,0-3.94-.18-5.98-.55-6.82-1.24-12.37-4.2-16.51-8.82-5.49,2.86-11.73,3.69-18.54,2.45-12.46-2.26-20.88-10.45-23.09-22.46-2.38-12.94,3.12-26.36,13.4-32.83-4.3-7.26-4.62-17.2-.77-25.48,3.48-7.49,9.78-12.47,17.35-13.75-2.89-10.38-.95-22.25,5.09-31.23-4.85-3.41-5.56-9.84-3.7-14.56,1.69-4.3,5.96-8.43,12.89-7.18,4.89.89,8.23,4.05,9.23,8.7,4.47-1.06,9.28-1.14,14.31-.22,3.72.68,7.17,1.82,10.24,3.41,1.63-4.03,5.77-8.09,12.43-6.88,6.42,1.17,8.96,6.11,9.2,10.34.26,4.73-2.22,10.34-7.45,12.18,5.2,12.82,2.32,28.64-7.06,38.82,5.51,3.93,8.87,10.1,9.48,17.42.68,8.17-2.31,16.55-7.81,21.97,7.22,9.71,7.52,24.18.7,35.36-5.28,8.65-13.62,13.32-23.43,13.32h.02Zm-22.29-10.5l.24.27c4.02,4.61,9.48,7.56,16.23,8.79,11.99,2.18,22.36-2.32,28.48-12.34,6.71-10.99,6.34-25.24-.89-34.66l-.25-.32.29-.28c5.49-5.23,8.48-13.48,7.82-21.52-.6-7.23-3.98-13.29-9.52-17.05l-.44-.3.37-.39c9.39-9.87,12.35-26.14,7.06-38.68l-.2-.46.48-.14c5.11-1.52,7.53-6.9,7.28-11.42-.28-5.04-3.44-8.59-8.46-9.5-6.37-1.16-10.17,2.74-11.61,6.78l-.18.49-.46-.25c-3.11-1.67-6.62-2.87-10.43-3.56-5.07-.92-9.91-.81-14.39.32l-.47.12-.08-.48c-.8-4.52-3.94-7.6-8.6-8.44-6.39-1.16-10.33,2.66-11.89,6.62-1.77,4.5-1.05,10.66,3.74,13.73l.39.25-.27.38c-6.19,8.95-8.14,20.95-5.08,31.34l.15.5-.51.07c-7.49,1.09-13.75,5.95-17.17,13.32-3.79,8.16-3.42,17.97.95,25.01l.24.39-.39.24c-10.05,6.08-15.68,19.59-13.37,32.13,2.14,11.62,10.29,19.55,22.36,21.74,6.74,1.22,12.88.37,18.27-2.52l.32-.17h0Z"/><path class="cls-3" d="m92.48,130.77c5.05-13.83-3.27-32.25-19-34.41,4.11-13.28-.45-29.2-10.98-38.27,7.41-6.9,1.2-22.43-10.77-18.99-6.07,1.75-8.29,6.85-7.72,11.71-3.47-.11-7.16.34-11.07,1.46-5.24,1.51-9.52,3.85-12.92,6.77-2.5-3.39-6.68-5.43-11.94-3.92-12.71,3.66-9.15,21.52,1.8,22.73-1.6,10.87,2.02,22.65,9.46,30.71-14.91,10.31-11.43,33.67,2.49,42.3-12.5,19.62,3.64,53.25,32.47,44.96,7.09-2.04,12.16-5.84,15.49-10.54,5.32,2.21,11.64,2.73,18.74.69,28.64-8.24,24.69-45.02,3.94-55.2h0Z"/></g></svg>