<?xml version="1.0" encoding="UTF-8"?><svg id="Layer_2" xmlns="http://www.w3.org/2000/svg" viewBox="0 0 163.64 233.23"><defs><style>.cls-1{fill:#ebb748;}.cls-2{fill:#fff;}.cls-3{fill:#916d49;}.cls-4{opacity:.51;}</style></defs><g id="Layer_1-2"><path class="cls-3" d="m75.76,156.07l-49.77,71.53-22.79-13.68,42.27-76.28c.26-.47.86-.63,1.32-.35l28.68,17.43c.47.28.6.9.29,1.35Z"/><path class="cls-1" d="m163.59,23.93c1.51-10.77-33.33-28.72-41.86-22.74-9.95,6.97-45.79,75.84-75.39,134.83-.22.44-.07.97.36,1.23l28.89,17.56c.42.25.96.15,1.25-.24,39.81-53.48,84.92-117.63,86.74-130.63h0Z"/><g class="cls-4"><path class="cls-2" d="m53.24,151.29c-5.41-3.29-10.53,5.12-5.11,8.41,5.41,3.29,10.53-5.12,5.11-8.41Z"/></g><g class="cls-4"><path class="cls-2" d="m47.05,169.21c-2.55-1.55-4.96,2.41-2.4,3.96,2.55,1.55,4.95-2.41,2.4-3.96Z"/></g><rect class="cls-3" x="133.8" y="13.42" width="3.12" height="3.84" rx=".95" ry=".95" transform="translate(51.98 123.08) rotate(-58.73)"/><path class="cls-3" d="m144.95,27.05l-1.75-.85c-.48-.23-.68-.82-.43-1.29.98-1.84,2.17-3.56,3.54-5.13.35-.4.97-.42,1.36-.05l1.42,1.33c.37.35.39.93.05,1.32-1.14,1.31-2.12,2.74-2.94,4.26-.24.45-.79.64-1.25.42h0Z"/><path class="cls-3" d="m133.08,44.54l-1.9-.44c-.52-.12-.85-.65-.7-1.16.68-2.41,1.77-4.72,3.21-6.76.31-.44.92-.51,1.35-.19l1.54,1.19c.41.31.48.88.19,1.31-1.13,1.64-2,3.47-2.55,5.38-.14.49-.63.8-1.13.68h-.01Z"/><path class="cls-3" d="m107.32,48.55l-1.08-1.62c-.28-.43-.17-.99.25-1.3.99-.72,1.93-1.52,2.79-2.4.36-.37.94-.39,1.32-.05l1.44,1.31c.39.36.42.98.05,1.36-1.06,1.08-2.21,2.07-3.44,2.95-.43.31-1.04.19-1.34-.26h0Z"/><path class="cls-3" d="m102.75,74.9l-1.89.52c-.54.15-1.09-.21-1.19-.76-.48-2.62-.12-5.35,1.04-7.74.24-.51.86-.7,1.35-.42l1.69,1c.41.24.58.76.38,1.19-.74,1.59-.98,3.44-.69,5.17.08.47-.22.92-.68,1.05h0Z"/><rect class="cls-3" x="97.87" y="93.86" width="5.4" height="3.84" rx=".95" ry=".95" transform="translate(-38.28 98.83) rotate(-44.86)"/><rect class="cls-3" x="75.78" y="134.75" width="3" height="5.12" rx=".95" ry=".95" transform="translate(-70.72 83.24) rotate(-40.56)"/><rect class="cls-3" x="79.6" y="108.47" width="2.55" height="3.84" rx=".95" ry=".95" transform="translate(-50.24 71.2) rotate(-37.13)"/><path class="cls-3" d="m79.09,86.89h0c.27-.45.85-.59,1.3-.31l1.66,1.01c.45.27.59.85.32,1.3h0c-.27.45-.85.59-1.3.31l-1.66-1.01c-.45-.27-.59-.85-.32-1.3Z"/><path class="cls-3" d="m63.84,126.24l-3.21.56c-.56.1-1.08-.32-1.12-.89-.12-2.05.4-4.14,1.47-5.89.3-.49.95-.61,1.4-.26l2.57,2c.37.29.46.79.24,1.2-.38.72-.59,1.53-.58,2.34,0,.46-.32.86-.78.94h.01Z"/><path class="cls-3" d="m113.14,31.85l-1.9-.46c-.54-.13-.85-.7-.68-1.23.37-1.12.89-2.2,1.55-3.19.31-.46.95-.57,1.39-.23l1.54,1.21c.38.3.47.84.21,1.24-.41.64-.75,1.33-.99,2.04-.16.46-.64.71-1.11.6v.02Z"/><rect class="cls-3" x="112.08" y="86.33" width="4.05" height="3.84" rx=".95" ry=".95" transform="translate(-30.14 89.01) rotate(-38.02)"/><polygon class="cls-1" points="0 219.77 3.2 213.93 25.99 227.6 22.14 233.23 0 219.77"/></g></svg>