<?xml version="1.0" encoding="UTF-8"?><svg id="Layer_2" xmlns="http://www.w3.org/2000/svg" viewBox="0 0 241.68 277.65"><defs><style>.cls-1{fill:#ebb748;}</style></defs><g id="Layer_1-2"><path class="cls-1" d="m126.44,0s-43.27,50.24-39.07,113.68c3.37,51.01,17.44,68.64,17.44,68.64,0,0-65.65-75-104.73-87.95,0,0-6.65,93.99,100.76,110.53,0,0-61.71,10.29-78.55,44.67,0,0,65.08,2.85,90.17-33.16l-2.31,61.13,14.36.11-3.46-61.95s39.41,45.94,86.52,35.72c0,0-28.35-31.26-73.55-46.44,0,0,83.34-22.23,107.66-124.18,0,0-102.63,78.4-114.55,103.54,0,0,31.74-37.14-.69-184.31v-.03Zm-11.59,204.49c-38.84-11.46-72.57-52.36-73.98-54.1l3.69-3.01c.34.41,34.23,41.5,71.64,52.54l-1.35,4.57h0Zm3.05-2.55l-4.74.51c-11.2-103.65,2.16-150.85,2.74-152.81l4.58,1.34c-.14.47-13.65,48.41-2.57,150.96h-.01Zm-1.51,2.48l-1.73-4.44c32.5-12.61,86.59-70.73,87.14-71.32l3.5,3.24c-2.25,2.42-55.39,59.51-88.91,72.52h0Zm-54.71,28.72l-1.6-4.49c.43-.15,43.46-15.57,53.6-27.96l3.69,3.02c-10.98,13.41-53.87,28.79-55.69,29.43Zm106.3,3.68c-19.72-5.55-52.59-32.04-53.99-33.17l3-3.71c.33.27,33.5,27,52.28,32.28l-1.29,4.59h0Z"/></g></svg>