<?xml version="1.0" encoding="UTF-8"?><svg id="Layer_2" xmlns="http://www.w3.org/2000/svg" viewBox="0 0 291.04 301.15"><defs><style>.cls-1{fill:#ebb748;}.cls-2{fill:#fff;}</style></defs><g id="Layer_1-2"><path class="cls-2" d="m111.79.43l153.5,39.46s29.89,6.55,23.44,37.2c-6.59,31.33-37.11,26.67-37.11,26.67L95.54,63.64s-27.28-8.9-19.61-38.73C83.68-5.24,111.79.44,111.79.44h0Zm154,51.64c-4.06-1.04-5.69,5.27-1.62,6.31,4.06,1.04,5.69-5.27,1.62-6.31Zm-17.49-1.83c-6.54-1.68-9.16,8.48-2.61,10.16,6.54,1.68,9.16-8.48,2.61-10.16Z"/><path class="cls-1" d="m171.15,83.07c1.06-25.9,9.28-49.09,15.62-63.37L111.8.43s-28.11-5.68-35.86,24.47c-7.67,29.83,19.61,38.73,19.61,38.73l75.6,19.43h0Z"/><polygon class="cls-1" points="177.89 17.42 161.92 80.7 174.04 83.81 190.01 20.53 177.89 17.42"/><path class="cls-2" d="m173.55,123.76l107.97,116.03s21.64,21.64-.33,43.97c-22.45,22.82-45.63,2.44-45.63,2.44l-109.78-117.98s-18.17-22.21,4.38-43.19c22.79-21.21,43.39-1.26,43.39-1.26h0Zm101.81,126.56c-2.86-3.07-7.63,1.36-4.77,4.44,2.86,3.07,7.63-1.36,4.77-4.44Zm-13.75-10.97c-4.6-4.94-12.28,2.2-7.68,7.14s12.28-2.2,7.68-7.14Z"/><path class="cls-1" d="m178.94,225.37c14.87-21.24,34.3-36.33,47.33-44.93l-52.73-56.67s-20.6-19.94-43.39,1.26c-22.55,20.98-4.38,43.19-4.38,43.19l53.17,57.15h0Z"/><polygon class="cls-1" points="220.03 173.72 172.45 218.39 180.97 227.55 228.56 182.88 220.03 173.72"/><path class="cls-2" d="m81.68,287.01L4.66,148.49s-15.82-26.19,10.86-42.61c27.27-16.78,44.89,8.57,44.89,8.57l78.32,140.85s12.32,25.92-14.6,40.89c-27.21,15.13-42.43-9.17-42.43-9.17h-.02ZM13.16,139.75c2.04,3.67,7.74.5,5.7-3.17s-7.74-.5-5.7,3.17Zm10.72,13.94c3.28,5.9,12.45.81,9.17-5.1-3.28-5.9-12.45-.81-9.17,5.1Z"/><path class="cls-1" d="m100.79,187.07c-19.52,17.06-42,27.06-56.72,32.29l37.62,67.65s15.23,24.3,42.43,9.17c26.92-14.97,14.6-40.88,14.6-40.88l-37.93-68.22h0Z"/><polygon class="cls-1" points="48.52 227.37 105.42 195.4 99.34 184.46 42.44 216.43 48.52 227.37"/></g></svg>