<?xml version="1.0" encoding="UTF-8"?><svg id="Layer_2" xmlns="http://www.w3.org/2000/svg" viewBox="0 0 224.08 345.41"><defs><style>.cls-1{fill:#ebb748;}.cls-2{fill:#fff;}.cls-3{fill:#916d49;}.cls-4{opacity:.39;}</style></defs><g id="Layer_1-2"><g class="cls-4"><polygon class="cls-2" points="179.65 104.68 145.2 83.93 166.52 48.05 201.18 68.93 179.65 104.68"/></g><rect class="cls-1" x="-50.68" y="194.37" width="281.01" height="40.47" transform="translate(-140.36 180.83) rotate(-58.94)"/><path class="cls-3" d="m170.71,115.54l-30.99-18.66c-1.56-.94-2.11-2.88-1.25-4.37l6-10.31c.88-1.51,2.9-1.97,4.49-1.02l31.14,18.75c1.57.95,2.12,2.92,1.22,4.41l-6.15,10.21c-.9,1.49-2.9,1.93-4.47.98h0Z"/><rect class="cls-1" x="156.22" y="66.22" width="34.4" height="19.22" transform="translate(18.99 185.26) rotate(-58.94)"/><rect class="cls-3" x="174.2" y="25.3" width="33.39" height="43" rx="2.11" ry="2.11" transform="translate(52.32 186.18) rotate(-58.94)"/><rect class="cls-3" x="189.25" y="10.1" width="35.92" height="19.22" rx="1.7" ry="1.7" transform="translate(83.42 187.04) rotate(-58.94)"/><rect class="cls-3" x="119.69" y="141.45" width="18.97" height="15.68" rx="2.03" ry="2.03" transform="translate(-65.35 182.92) rotate(-58.94)"/></g></svg>