<?xml version="1.0" encoding="UTF-8"?><svg id="Layer_2" xmlns="http://www.w3.org/2000/svg" xmlns:xlink="http://www.w3.org/1999/xlink" viewBox="0 0 1346.32 329.38"><defs><style>.cls-1{fill:none;}.cls-2{fill:url(#Jive);}.cls-3{fill:#00427e;}.cls-4{fill:#ecb83d;}.cls-5{fill:#fff;}.cls-6{fill:#fd0;}.cls-7{fill:#9ddcf9;opacity:.4;}</style><pattern id="Jive" x="0" y="0" width="108.34" height="109.64" patternTransform="translate(3637.92 -18813.06) rotate(-90) scale(1.47)" patternUnits="userSpaceOnUse" viewBox="0 0 108.34 109.64"><rect class="cls-1" x="0" width="108.34" height="109.64"/><path class="cls-3" d="m87.47,144.34c.02-.12.12-.21.25-.21,12.91-.13,24.75-3.27,33.97-11.51-8.03,5.56-22.94,7.51-31.53,3.62-.11-.05-.17-.17-.14-.29.03-.12.13-.2.25-.2,10.68.29,19.28-3.01,25.98-8.96-6.87-.42-12.57-4.74-12.56-9.84,0-.12.08-.22.2-.25.12-.03.23.04.28.14,1.12,2.49,4.75,3.78,8.58,2.88,4.18-.98,7-4.19,6.3-7.16-.47-2.01-2.44-3.4-4.95-3.79-.13-.02-.22-.13-.22-.26,0-.13.1-.23.23-.25,1.07-.1,2.18-.11,3.32,0,6.49.62,11.51,4.6,11.95,9.18,4.71-.55,8.88-3.16,10.38-6.77.04-.11.16-.17.28-.15.12.02.2.11.21.23.38,4.75-1.26,7.84-4.97,10.85,5.38-2.06,11.45-2.16,17.26.54.11.05.16.16.14.28-.02.12-.12.2-.24.2-4.88.19-8.42,1.76-11.73,5.07,18.25-5.13,33.09,6.2,27.95,23.05-.04.12-.15.19-.27.18-.12-.01-.22-.11-.23-.23-.92-9.71-7.7-16.12-17.86-17.08,5.39,2.06,11,6.98,11.56,15.53,0,.12-.07.23-.19.26-.12.03-.24-.03-.29-.14-2.8-6.15-8.3-9.27-14.16-9.81,6.33,2.58,10.4,8.6,11.57,16.42.02.12-.05.24-.17.28-.12.04-.25-.02-.3-.12-3.87-7.58-12.16-12.79-22.45-8.81-10.62,4.11-15.27,16.39-16.3,25.04-.02.12-.12.21-.24.22s-.23-.07-.26-.2c-3.72-15.69,3.58-31.95,16.64-38.84-7.1,2-13.44,6.26-17.03,13.35-8.29,1.02-14,3.86-16.86,9.24-.06.11-.18.16-.29.12-.12-.03-.19-.14-.18-.27.18-2.11.94-6.33,4.07-8.27-6.96.01-12.51-.89-17.8-3.01-.11-.05-.18-.16-.15-.28Zm29.49,53.47c-.1-.07-.23-.05-.32.03-.09.08-.1.21-.04.31,1.62,2.8.14,6.81-3.05,6.81-5.72,0-8.47-10.77-7.6-20.59,2.16,5.76,4.03,8.05,7.35,10.79.09.08.23.08.32,0,.09-.08.12-.21.06-.32-4.86-9.08-5.9-16.07-5.9-24.09,1.46,5.96,3.2,9.32,8.13,14.38.09.09.22.1.32.03.1-.07.14-.2.09-.32-5.3-11.59-4.89-24.45-.95-34.26.04-.1.01-.21-.06-.28-.08-.07-.19-.09-.29-.04-5.21,2.55-8.26,4.23-12.75,10.39,1.36,7.4.23,11.05-3.17,17.2,3.94-9.92,1.84-23.89-8.19-29.59-.11-.06-.25-.03-.32.06-.08.1-.07.24.02.33,3.78,3.96,6.53,10.63,4.16,17.93,1.53-10.39-7.6-19.12-17.78-19.12-9.6,0-16.15,7.51-15.61,14.94.54,7.37,5.44,10.97,9.67,12.5.11.04.24,0,.3-.1.06-.1.05-.23-.03-.32-5.61-5.69-6.38-16.49,3.58-19.76-5.86,5.06-3.69,16.83,5.69,17.72.12.01.23-.06.26-.17s0-.23-.1-.3c-2.01-1.28-3.68-3.77-3.68-6.57,0-4.67,3.42-6.51,5.68-6.51,3.42,0,6.26,3.26,6.26,8.18,0,5.84-5.26,10.68-12.02,11.44-6.63.73-12.78-2.15-15.75-6.46-.07-.1-.2-.14-.31-.09s-.17.18-.14.29c3.02,11.7,16.8,16.88,26.89,9.51-6.61,7.5-17.01,7.61-25.72-.09-.09-.08-.23-.08-.32,0-.1.07-.13.21-.07.31,2.67,5.41,9.25,11.82,18.61,10.88,8.56-.86,13.52-9.01,14.52-15.69.56,8.52-1.39,14.54-8.75,20.15-.1.07-.13.21-.07.32.05.11.18.16.3.13,6.79-1.96,12.23-5.43,15.05-12.54,0,6.16-2.14,12.37-7.53,16.51-.1.07-.13.21-.07.31s.18.16.3.13c3.45-.98,6.17-2.49,8.14-5.19,1.31,11.1,6.52,17.69,12.52,17.69,4.12,0,7.2-3.03,7.2-7.87,0-2.83-1.49-6.8-4.81-9.02Zm99.23-91.62c-3.16-3.9-9.54-5.39-16.43-3.99.51-4.3-.33-8.79-1.61-11.48-.05-.11-.17-.17-.29-.14-.12.03-.2.14-.19.26.37,8.77-4.62,15.84-13.45,18.91,6.91-4.76,8.93-14.19,5.64-19.07-.07-.1-.2-.14-.31-.09-.11.04-.18.16-.15.28.37,2.06-.61,4.68-2.71,6.73-2.91,2.81-6.85,3.45-8.81,1.43-1.96-2.03-1.2-5.95,1.71-8.76,1.06-1.03,2.26-1.76,3.45-2.18.11-.04.18-.15.17-.27-.01-.12-.11-.21-.23-.22-6.39-.55-10.77,3.25-13.52,7.88-2.79,4.71-7.57,8.41-13.21,7.67-.12-.02-.23.05-.27.17-.04.11,0,.24.11.3,2.8,1.68,5.87,2.38,9.86,1.05-5.79,4.91-14.05,7.74-21.84,5.23-.11-.04-.23,0-.29.1-.06.1-.05.22.03.31,5.91,6.56,17.69,6.7,25.11,1.37-3.04,4.32-7.07,7.48-14.29,8.48-.12.02-.2.11-.22.22-.01.12.05.23.16.27,8.29,3.08,16.6-.04,23.45-8.21-2.99,6.38-7.91,11.48-14.77,14.01-.12.04-.18.16-.16.28.02.12.12.21.24.21,3.94.08,7.49-.86,12.27-3.57-3.51,5.69-2.74,15.64,2.37,22.26.07.09.2.12.3.08.11-.05.17-.16.15-.27-1.18-7.2,1.3-15.33,5.61-19.64-2.15,7.63,0,14.58,5.9,19.64.07.06.17.08.26.04.09-.03.15-.11.16-.2,1.23-9.42,11.77-18.97,20.6-19.78.12-.01.22-.11.23-.24s-.07-.24-.2-.26c-4.28-.97-8.69-.49-12.39,1.03,2.66-2.93,5.94-5.11,9.56-6.25.12-.04.19-.15.18-.27-.01-.12-.11-.21-.23-.22-4.51-.31-8.92,1.01-12.73,3.54,4.36-6.62,10.98-11.54,19.43-13.51.12-.03.2-.14.2-.26,0-.12-.1-.22-.23-.24-11.92-1.3-21.75,3.32-28.22,11.92,1.65-4.9,6.37-9.76,12.95-12.62,5.85-2.54,11.85-2.95,16.42-1.51.11.03.22,0,.29-.1.06-.09.06-.21-.01-.3Zm-52.91,75.57c4.81-10.49,4.46-18.69.59-29.05-.04-.12-.17-.18-.29-.16-.12.03-.21.14-.2.26.62,12.62-2.83,21.65-10.3,27.81,8.25-9.85,4.35-29.56-8.82-29.56-9.59,0-17.52,7.98-19.45,17.52-.03.12.04.24.16.29.12.04.25,0,.31-.11,2.84-4.76,7.41-7.85,12.46-7.85,8.13,0,10.54,6.47,10.54,11,0,6.19-4.93,11.34-8.71,11.34-3.44,0-5.04-2.82-5.04-4.93,0-3.9,3-7.17,6.38-8.16.12-.04.2-.15.18-.28-.02-.12-.12-.22-.25-.22-4.11-.03-7.58,1.86-9.63,5.57-.27-2.88-.27-4.69.64-7.72.04-.12-.02-.24-.12-.3-.11-.06-.24-.03-.32.07-7.36,9.39-3.84,25.62,1.98,32.36-5.53-3.98-10.42-12.63-10.34-24.39,0-.12-.08-.23-.21-.25-.12-.03-.24.04-.28.15-4.11,10.25-1.93,29.25,9.28,39.85-2.88.4-5.87.35-9.12-.69-.12-.04-.24.01-.3.12-.06.11-.04.24.06.32,4.09,3.46,9.81,4.54,15.27,4.54-4.7-5.5-3.14-16.55,4.36-16.55,5.35,0,7.78,8.3,3.65,12.78-.08.09-.09.21-.03.31.06.1.19.14.3.1,4.78-1.65,9.95-5.79,9.95-11.02s-4.81-9.39-11.8-9.05c8.82-2.51,18.05.27,22.88,6.25.07.09.21.12.31.07.11-.05.16-.18.13-.29-2.79-10.72-11.97-15.2-23.44-13.71,9.28-3.76,23.25-.48,29.42,7.31.07.09.2.12.31.07.11-.05.16-.17.14-.28-1.37-6.62-4.86-11.56-10.62-13.52Z"/><path class="cls-7" d="m189.67,162.47c-.02.12-.12.21-.25.21-12.91.14-24.75,3.27-33.97,11.52,8.03-5.56,22.94-7.51,31.53-3.62.11.05.17.17.14.29-.03.12-.13.2-.25.2-10.68-.29-19.28,3.01-25.98,8.96,6.87.42,12.57,4.74,12.56,9.85,0,.12-.08.22-.2.25-.12.02-.23-.04-.28-.14-1.12-2.49-4.75-3.78-8.58-2.88-4.18.98-7,4.19-6.3,7.17.47,2.01,2.44,3.4,4.95,3.79.13.02.22.13.22.26,0,.13-.1.23-.23.25-1.07.1-2.18.11-3.32,0-6.49-.62-11.51-4.59-11.95-9.18-4.71.55-8.88,3.16-10.38,6.77-.04.11-.16.17-.28.15-.12-.02-.2-.11-.21-.23-.38-4.75,1.26-7.84,4.97-10.85-5.38,2.06-11.45,2.16-17.26-.54-.11-.05-.16-.17-.14-.28.02-.12.12-.2.24-.2,4.88-.19,8.42-1.76,11.73-5.07-18.26,5.13-33.09-6.2-27.96-23.05.04-.12.15-.19.27-.18s.22.11.23.23c.92,9.71,7.7,16.12,17.86,17.08-5.39-2.06-11-6.97-11.56-15.53,0-.12.07-.23.19-.26.12-.03.24.03.29.14,2.8,6.15,8.3,9.26,14.16,9.81-6.33-2.58-10.4-8.6-11.57-16.42-.02-.12.05-.24.17-.28.12-.04.25.02.3.13,3.87,7.58,12.16,12.79,22.45,8.81,10.62-4.11,15.27-16.38,16.3-25.04.02-.12.12-.22.24-.22.12,0,.23.08.26.2,3.72,15.69-3.58,31.95-16.64,38.84,7.1-2,13.44-6.26,17.03-13.35,8.29-1.02,14-3.86,16.86-9.24.06-.11.18-.16.29-.12.12.04.19.15.18.27-.18,2.11-.94,6.33-4.07,8.27,6.96-.01,12.51.89,17.8,3.01.11.04.18.16.15.28Zm-29.49-53.47c.1.06.23.05.32-.03.09-.08.1-.21.04-.31-1.62-2.8-.14-6.81,3.05-6.81,5.72,0,8.47,10.77,7.6,20.59-2.16-5.75-4.03-8.05-7.35-10.79-.09-.08-.23-.08-.32,0-.09.08-.12.21-.06.32,4.86,9.08,5.9,16.06,5.9,24.08-1.46-5.96-3.2-9.32-8.13-14.38-.09-.09-.22-.1-.32-.03-.1.07-.14.2-.09.31,5.3,11.59,4.89,24.45.95,34.26-.04.1-.01.21.06.28.08.07.19.09.29.04,5.21-2.55,8.26-4.23,12.75-10.39-1.36-7.4-.23-11.05,3.17-17.19-3.94,9.92-1.84,23.89,8.19,29.59.11.06.25.04.32-.06.08-.1.07-.24-.02-.33-3.78-3.96-6.53-10.63-4.16-17.93-1.53,10.39,7.6,19.11,17.78,19.11,9.6,0,16.15-7.51,15.61-14.94-.54-7.37-5.44-10.97-9.67-12.5-.11-.04-.24,0-.3.1-.06.1-.05.23.03.31,5.61,5.69,6.38,16.49-3.58,19.76,5.86-5.06,3.69-16.83-5.69-17.72-.12,0-.23.06-.26.17-.04.11,0,.23.1.3,2.01,1.28,3.68,3.77,3.68,6.57,0,4.67-3.42,6.51-5.68,6.51-3.42,0-6.26-3.26-6.26-8.18,0-5.84,5.26-10.68,12.02-11.43,6.63-.74,12.78,2.15,15.75,6.46.07.1.2.14.31.09.11-.05.17-.17.14-.29-3.02-11.7-16.8-16.88-26.89-9.51,6.61-7.5,17.01-7.61,25.72.09.09.08.22.09.32.01.1-.07.13-.21.07-.31-2.67-5.41-9.25-11.82-18.61-10.88-8.56.86-13.52,9.02-14.52,15.69-.56-8.52,1.39-14.54,8.75-20.14.1-.07.13-.21.07-.32-.05-.11-.18-.16-.3-.13-6.79,1.96-12.23,5.42-15.05,12.54,0-6.16,2.14-12.37,7.53-16.51.1-.07.13-.21.07-.32-.05-.11-.18-.16-.29-.13-3.45.98-6.17,2.49-8.14,5.18-1.31-11.1-6.52-17.69-12.53-17.69-4.12,0-7.21,3.03-7.21,7.87,0,2.83,1.49,6.8,4.81,9.02Zm-99.23,91.62c3.16,3.9,9.54,5.39,16.43,3.99-.51,4.3.33,8.79,1.61,11.49.05.11.17.17.29.14.12-.03.2-.14.19-.26-.37-8.77,4.62-15.84,13.45-18.91-6.91,4.76-8.93,14.19-5.64,19.06.07.1.2.14.31.09.11-.04.18-.16.15-.28-.37-2.06.61-4.68,2.71-6.72,2.91-2.81,6.85-3.45,8.81-1.43,1.96,2.03,1.2,5.95-1.71,8.76-1.06,1.03-2.26,1.76-3.45,2.19-.11.04-.18.15-.17.27.01.12.11.21.23.22,6.39.55,10.77-3.25,13.52-7.88,2.79-4.71,7.57-8.41,13.21-7.67.12.02.23-.05.27-.17.04-.11,0-.24-.11-.3-2.8-1.68-5.87-2.38-9.86-1.05,5.8-4.91,14.05-7.74,21.84-5.23.11.04.23,0,.29-.1s.05-.22-.03-.31c-5.91-6.56-17.69-6.7-25.11-1.37,3.04-4.32,7.07-7.49,14.29-8.48.12-.02.21-.11.22-.22.01-.12-.05-.22-.16-.27-8.29-3.08-16.6.04-23.45,8.22,2.99-6.38,7.91-11.49,14.77-14.01.12-.04.18-.16.16-.28-.02-.12-.12-.21-.24-.21-3.94-.08-7.49.86-12.26,3.57,3.51-5.69,2.74-15.64-2.37-22.26-.07-.09-.2-.12-.3-.08-.11.05-.17.16-.15.28,1.18,7.2-1.3,15.33-5.61,19.64,2.15-7.63,0-14.58-5.9-19.64-.07-.06-.17-.08-.26-.04-.09.03-.15.11-.16.2-1.23,9.42-11.77,18.97-20.6,19.78-.12.01-.22.11-.23.24,0,.12.07.24.2.26,4.28.97,8.69.49,12.39-1.03-2.66,2.93-5.94,5.11-9.55,6.24-.12.04-.19.15-.18.27.01.12.11.22.23.22,4.51.31,8.92-1.01,12.73-3.54-4.36,6.62-10.98,11.54-19.43,13.51-.12.03-.2.14-.2.26,0,.12.1.22.23.24,11.92,1.3,21.75-3.32,28.22-11.92-1.65,4.9-6.37,9.76-12.95,12.62-5.85,2.55-11.85,2.95-16.42,1.51-.11-.03-.22,0-.29.1-.06.09-.06.22.01.3Zm52.9-75.57c-4.81,10.49-4.46,18.69-.59,29.05.04.12.17.19.29.16.12-.03.21-.14.2-.26-.62-12.62,2.83-21.65,10.3-27.81-8.25,9.85-4.35,29.56,8.82,29.56,9.59,0,17.52-7.98,19.46-17.53.03-.12-.04-.24-.16-.29-.12-.04-.25,0-.31.11-2.84,4.76-7.41,7.85-12.46,7.85-8.13,0-10.54-6.47-10.54-11,0-6.19,4.93-11.34,8.71-11.34,3.44,0,5.04,2.82,5.04,4.93,0,3.9-3,7.17-6.37,8.16-.12.04-.2.15-.18.28.02.12.12.22.25.22,4.11.03,7.58-1.85,9.63-5.57.27,2.88.27,4.69-.64,7.72-.04.12.02.24.12.3.11.05.24.03.32-.07,7.36-9.39,3.84-25.62-1.98-32.36,5.53,3.98,10.42,12.63,10.34,24.39,0,.12.08.23.21.25.12.02.24-.04.28-.15,4.11-10.25,1.93-29.25-9.28-39.85,2.88-.4,5.87-.35,9.12.69.12.04.24-.01.3-.12.06-.11.04-.24-.06-.32-4.09-3.46-9.81-4.54-15.27-4.54,4.7,5.5,3.14,16.55-4.35,16.55-5.35,0-7.78-8.3-3.65-12.78.08-.09.09-.21.03-.31-.06-.1-.19-.14-.3-.1-4.78,1.66-9.95,5.79-9.95,11.02s4.81,9.39,11.8,9.05c-8.82,2.5-18.05-.27-22.88-6.25-.07-.09-.2-.12-.31-.07-.11.05-.16.17-.13.29,2.79,10.71,11.97,15.2,23.44,13.71-9.28,3.76-23.25.48-29.42-7.31-.07-.09-.2-.12-.31-.07-.11.05-.16.17-.14.28,1.37,6.62,4.86,11.56,10.62,13.52Z"/><path class="cls-3" d="m-20.86,144.34c.02-.12.12-.21.25-.21,12.91-.13,24.75-3.27,33.97-11.51-8.03,5.56-22.94,7.51-31.53,3.62-.11-.05-.17-.17-.14-.29.03-.12.13-.2.25-.2,10.68.29,19.28-3.01,25.98-8.96-6.87-.42-12.57-4.74-12.56-9.84,0-.12.08-.22.2-.25.12-.03.23.04.28.14,1.12,2.49,4.75,3.78,8.58,2.88,4.18-.98,7-4.19,6.3-7.16-.47-2.01-2.44-3.4-4.95-3.79-.13-.02-.22-.13-.22-.26,0-.13.1-.23.23-.25,1.07-.1,2.18-.11,3.32,0,6.49.62,11.51,4.6,11.95,9.18,4.71-.55,8.88-3.16,10.38-6.77.04-.11.16-.17.28-.15.12.02.2.11.21.23.38,4.75-1.26,7.84-4.97,10.85,5.38-2.06,11.45-2.16,17.26.54.11.05.16.16.14.28-.02.12-.12.2-.24.2-4.88.19-8.42,1.76-11.73,5.07,18.25-5.13,33.09,6.2,27.95,23.05-.04.12-.15.19-.27.18-.12-.01-.22-.11-.23-.23-.92-9.71-7.7-16.12-17.86-17.08,5.39,2.06,11,6.98,11.56,15.53,0,.12-.07.23-.19.26-.12.03-.24-.03-.29-.14-2.8-6.15-8.3-9.27-14.16-9.81,6.33,2.58,10.4,8.6,11.57,16.42.02.12-.05.24-.17.28-.12.04-.25-.02-.3-.12-3.87-7.58-12.16-12.79-22.45-8.81-10.62,4.11-15.27,16.39-16.3,25.04-.02.12-.12.21-.24.22-.12,0-.23-.07-.26-.2-3.72-15.69,3.58-31.95,16.64-38.84-7.1,2-13.44,6.26-17.03,13.35-8.29,1.02-14,3.86-16.86,9.24-.06.11-.18.16-.29.12-.12-.03-.19-.14-.18-.27.18-2.11.94-6.33,4.07-8.27-6.97.01-12.51-.89-17.8-3.01-.11-.05-.18-.16-.15-.28Zm29.49,53.47c-.1-.07-.23-.05-.32.03-.09.08-.1.21-.04.31,1.62,2.8.14,6.81-3.05,6.81-5.72,0-8.47-10.77-7.6-20.59,2.16,5.76,4.03,8.05,7.35,10.79.09.08.23.08.32,0,.09-.08.12-.21.06-.32-4.86-9.08-5.9-16.07-5.9-24.09,1.46,5.96,3.2,9.32,8.13,14.38.09.09.22.1.32.03.1-.07.14-.2.09-.32-5.3-11.59-4.89-24.45-.95-34.26.04-.1.01-.21-.06-.28-.08-.07-.19-.09-.29-.04-5.21,2.55-8.26,4.23-12.75,10.39,1.36,7.4.23,11.05-3.17,17.2,3.94-9.92,1.84-23.89-8.19-29.59-.11-.06-.25-.03-.32.06-.08.1-.07.24.02.33,3.78,3.96,6.53,10.63,4.16,17.93,1.53-10.39-7.6-19.12-17.78-19.12-9.6,0-16.15,7.51-15.61,14.94.54,7.37,5.44,10.97,9.67,12.5.11.04.24,0,.3-.1.06-.1.05-.23-.03-.32-5.61-5.69-6.38-16.49,3.58-19.76-5.86,5.06-3.69,16.83,5.69,17.72.12.01.23-.06.26-.17s0-.23-.1-.3c-2.01-1.28-3.68-3.77-3.68-6.57,0-4.67,3.42-6.51,5.68-6.51,3.42,0,6.26,3.26,6.26,8.18,0,5.84-5.26,10.68-12.02,11.44-6.63.73-12.78-2.15-15.75-6.46-.07-.1-.2-.14-.31-.09-.11.05-.17.18-.14.29,3.02,11.7,16.8,16.88,26.89,9.51-6.61,7.5-17.01,7.61-25.72-.09-.09-.08-.23-.08-.32,0-.1.07-.13.21-.07.31,2.67,5.41,9.25,11.82,18.61,10.88,8.56-.86,13.52-9.01,14.52-15.69.56,8.52-1.39,14.54-8.75,20.15-.1.07-.13.21-.07.32.05.11.18.16.3.13,6.79-1.96,12.23-5.43,15.05-12.54,0,6.16-2.14,12.37-7.53,16.51-.1.07-.13.21-.07.31s.18.16.3.13c3.45-.98,6.17-2.49,8.14-5.19,1.31,11.1,6.52,17.69,12.53,17.69,4.12,0,7.21-3.03,7.21-7.87,0-2.83-1.49-6.8-4.81-9.02Zm99.23-91.62c-3.16-3.9-9.54-5.39-16.43-3.99.51-4.3-.33-8.79-1.61-11.48-.05-.11-.17-.17-.29-.14-.12.03-.2.14-.19.26.37,8.77-4.62,15.84-13.45,18.91,6.91-4.76,8.93-14.19,5.64-19.07-.07-.1-.2-.14-.31-.09-.11.04-.18.16-.15.28.37,2.06-.61,4.68-2.71,6.73-2.91,2.81-6.85,3.45-8.81,1.43-1.96-2.03-1.2-5.95,1.71-8.76,1.06-1.03,2.26-1.76,3.45-2.18.11-.04.18-.15.17-.27-.01-.12-.11-.21-.23-.22-6.39-.55-10.77,3.25-13.52,7.88-2.79,4.71-7.57,8.41-13.21,7.67-.12-.02-.23.05-.27.17-.04.11,0,.24.11.3,2.8,1.68,5.87,2.38,9.86,1.05-5.79,4.91-14.05,7.74-21.84,5.23-.11-.04-.23,0-.29.1-.06.1-.05.22.03.31,5.91,6.56,17.69,6.7,25.11,1.37-3.04,4.32-7.07,7.48-14.29,8.48-.12.02-.2.11-.22.22-.01.12.05.23.16.27,8.29,3.08,16.6-.04,23.45-8.21-2.99,6.38-7.91,11.48-14.77,14.01-.12.04-.18.16-.16.28.02.12.12.21.24.21,3.94.08,7.49-.86,12.27-3.57-3.51,5.69-2.74,15.64,2.37,22.26.07.09.2.12.3.08.11-.05.17-.16.15-.27-1.18-7.2,1.3-15.33,5.61-19.64-2.15,7.63,0,14.58,5.9,19.64.07.06.17.08.26.04.09-.03.15-.11.16-.2,1.23-9.42,11.77-18.97,20.6-19.78.12-.01.22-.11.23-.24s-.07-.24-.2-.26c-4.28-.97-8.69-.49-12.39,1.03,2.66-2.93,5.94-5.11,9.55-6.25.12-.04.19-.15.18-.27-.01-.12-.11-.21-.23-.22-4.51-.31-8.92,1.01-12.73,3.54,4.36-6.62,10.98-11.54,19.43-13.51.12-.03.2-.14.2-.26,0-.12-.1-.22-.23-.24-11.92-1.3-21.75,3.32-28.22,11.92,1.65-4.9,6.37-9.76,12.95-12.62,5.85-2.54,11.85-2.95,16.42-1.51.11.03.22,0,.29-.1.06-.09.06-.21-.01-.3Zm-52.9,75.57c4.81-10.49,4.46-18.69.59-29.05-.04-.12-.17-.18-.29-.16-.12.03-.21.14-.2.26.62,12.62-2.83,21.65-10.3,27.81,8.25-9.85,4.35-29.56-8.82-29.56-9.59,0-17.52,7.98-19.45,17.52-.03.12.04.24.16.29.12.04.25,0,.31-.11,2.84-4.76,7.41-7.85,12.46-7.85,8.13,0,10.54,6.47,10.54,11,0,6.19-4.93,11.34-8.71,11.34-3.44,0-5.04-2.82-5.04-4.93,0-3.9,3-7.17,6.38-8.16.12-.04.2-.15.18-.28-.02-.12-.12-.22-.25-.22-4.11-.03-7.58,1.86-9.63,5.57-.27-2.88-.27-4.69.64-7.72.04-.12-.02-.24-.12-.3-.11-.06-.24-.03-.32.07-7.36,9.39-3.84,25.62,1.98,32.36-5.53-3.98-10.42-12.63-10.34-24.39,0-.12-.08-.23-.2-.25-.12-.03-.24.04-.28.15-4.11,10.25-1.93,29.25,9.28,39.85-2.88.4-5.87.35-9.12-.69-.12-.04-.24.01-.3.12-.06.11-.04.24.06.32,4.09,3.46,9.81,4.54,15.27,4.54-4.7-5.5-3.14-16.55,4.36-16.55,5.35,0,7.78,8.3,3.65,12.78-.08.09-.09.21-.03.31.06.1.19.14.3.1,4.78-1.65,9.95-5.79,9.95-11.02s-4.81-9.39-11.8-9.05c8.82-2.51,18.05.27,22.88,6.25.07.09.21.12.31.07.11-.05.16-.18.13-.29-2.79-10.72-11.97-15.2-23.44-13.71,9.28-3.76,23.25-.48,29.42,7.31.07.09.2.12.31.07.11-.05.16-.17.14-.28-1.37-6.62-4.86-11.56-10.62-13.52Z"/><path class="cls-7" d="m81.33,162.47c-.02.12-.12.21-.25.21-12.91.14-24.75,3.27-33.97,11.52,8.03-5.56,22.94-7.51,31.53-3.62.11.05.17.17.14.29-.03.12-.13.2-.25.2-10.68-.29-19.28,3.01-25.98,8.96,6.87.42,12.57,4.74,12.56,9.85,0,.12-.08.22-.2.25-.12.02-.23-.04-.28-.14-1.12-2.49-4.75-3.78-8.58-2.88-4.18.98-7,4.19-6.3,7.17.47,2.01,2.44,3.4,4.95,3.79.13.02.22.13.22.26,0,.13-.1.23-.23.25-1.07.1-2.18.11-3.32,0-6.49-.62-11.51-4.59-11.95-9.18-4.71.55-8.88,3.16-10.38,6.77-.04.11-.16.17-.28.15-.12-.02-.2-.11-.21-.23-.38-4.75,1.26-7.84,4.97-10.85-5.38,2.06-11.45,2.16-17.26-.54-.11-.05-.16-.17-.14-.28.02-.12.12-.2.24-.2,4.88-.19,8.42-1.76,11.73-5.07-18.26,5.13-33.09-6.2-27.95-23.05.04-.12.15-.19.27-.18s.22.11.23.23c.92,9.71,7.7,16.12,17.86,17.08-5.39-2.06-11-6.97-11.56-15.53,0-.12.07-.23.19-.26.12-.03.24.03.29.14,2.8,6.15,8.3,9.26,14.16,9.81-6.33-2.58-10.4-8.6-11.57-16.42-.02-.12.05-.24.17-.28.12-.04.25.02.3.13,3.87,7.58,12.16,12.79,22.45,8.81,10.62-4.11,15.27-16.38,16.3-25.04.02-.12.12-.22.24-.22.12,0,.23.08.26.2,3.72,15.69-3.58,31.95-16.64,38.84,7.1-2,13.44-6.26,17.03-13.35,8.29-1.02,14-3.86,16.86-9.24.06-.11.18-.16.29-.12.12.04.19.15.18.27-.18,2.11-.94,6.33-4.07,8.27,6.96-.01,12.51.89,17.8,3.01.11.04.18.16.15.28Zm-29.49-53.47c.1.06.23.05.32-.03.09-.08.1-.21.04-.31-1.62-2.8-.14-6.81,3.05-6.81,5.72,0,8.47,10.77,7.6,20.59-2.16-5.75-4.03-8.05-7.35-10.79-.09-.08-.23-.08-.32,0-.09.08-.12.21-.06.32,4.86,9.08,5.9,16.06,5.9,24.08-1.46-5.96-3.2-9.32-8.13-14.38-.09-.09-.22-.1-.32-.03-.1.07-.14.2-.09.31,5.3,11.59,4.89,24.45.95,34.26-.04.1-.01.21.06.28.08.07.19.09.29.04,5.21-2.55,8.26-4.23,12.75-10.39-1.36-7.4-.23-11.05,3.17-17.19-3.94,9.92-1.84,23.89,8.19,29.59.11.06.25.04.32-.06.08-.1.07-.24-.02-.33-3.78-3.96-6.53-10.63-4.16-17.93-1.53,10.39,7.6,19.11,17.78,19.11,9.6,0,16.15-7.51,15.61-14.94-.54-7.37-5.44-10.97-9.67-12.5-.11-.04-.24,0-.3.1-.06.1-.05.23.03.31,5.61,5.69,6.38,16.49-3.58,19.76,5.86-5.06,3.69-16.83-5.69-17.72-.12,0-.23.06-.26.17-.04.11,0,.23.1.3,2.01,1.28,3.68,3.77,3.68,6.57,0,4.67-3.42,6.51-5.68,6.51-3.42,0-6.26-3.26-6.26-8.18,0-5.84,5.26-10.68,12.02-11.43,6.63-.74,12.78,2.15,15.75,6.46.07.1.2.14.31.09.11-.05.17-.17.14-.29-3.02-11.7-16.8-16.88-26.89-9.51,6.61-7.5,17.01-7.61,25.72.09.09.08.22.09.32.01.1-.07.13-.21.07-.31-2.67-5.41-9.25-11.82-18.61-10.88-8.56.86-13.52,9.02-14.52,15.69-.56-8.52,1.39-14.54,8.75-20.14.1-.07.13-.21.07-.32s-.18-.16-.3-.13c-6.79,1.96-12.23,5.42-15.05,12.54,0-6.16,2.14-12.37,7.53-16.51.1-.07.13-.21.07-.32-.05-.11-.18-.16-.29-.13-3.45.98-6.17,2.49-8.14,5.18-1.31-11.1-6.52-17.69-12.53-17.69-4.12,0-7.21,3.03-7.21,7.87,0,2.83,1.49,6.8,4.81,9.02Zm-99.23,91.62c3.16,3.9,9.54,5.39,16.43,3.99-.51,4.3.33,8.79,1.61,11.49.05.11.17.17.29.14s.2-.14.19-.26c-.38-8.77,4.62-15.84,13.45-18.91-6.91,4.76-8.93,14.19-5.64,19.06.07.1.2.14.31.09.11-.04.18-.16.15-.28-.37-2.06.61-4.68,2.71-6.72,2.91-2.81,6.85-3.45,8.81-1.43,1.96,2.03,1.2,5.95-1.71,8.76-1.06,1.03-2.26,1.76-3.45,2.19-.11.04-.18.15-.17.27.01.12.11.21.23.22,6.39.55,10.77-3.25,13.52-7.88,2.8-4.71,7.57-8.41,13.21-7.67.12.02.23-.05.27-.17.04-.11,0-.24-.11-.3-2.8-1.68-5.87-2.38-9.86-1.05,5.79-4.91,14.05-7.74,21.84-5.23.11.04.23,0,.29-.1s.05-.22-.03-.31c-5.91-6.56-17.69-6.7-25.11-1.37,3.04-4.32,7.07-7.49,14.29-8.48.12-.02.21-.11.22-.22.01-.12-.05-.22-.16-.27-8.29-3.08-16.6.04-23.45,8.22,2.99-6.38,7.91-11.49,14.77-14.01.12-.04.18-.16.16-.28-.02-.12-.12-.21-.24-.21-3.94-.08-7.49.86-12.27,3.57,3.51-5.69,2.74-15.64-2.37-22.26-.07-.09-.2-.12-.3-.08-.11.05-.17.16-.15.28,1.18,7.2-1.3,15.33-5.61,19.64,2.15-7.63,0-14.58-5.9-19.64-.07-.06-.17-.08-.26-.04-.09.03-.15.11-.16.2-1.23,9.42-11.77,18.97-20.6,19.78-.12.01-.22.11-.23.24s.07.24.2.26c4.28.97,8.69.49,12.39-1.03-2.66,2.93-5.94,5.11-9.55,6.24-.12.04-.19.15-.18.27.01.12.11.22.23.22,4.51.31,8.92-1.01,12.73-3.54-4.36,6.62-10.98,11.54-19.43,13.51-.12.03-.2.14-.2.26,0,.12.1.22.23.24,11.92,1.3,21.75-3.32,28.22-11.92-1.65,4.9-6.37,9.76-12.95,12.62-5.85,2.55-11.85,2.95-16.42,1.51-.11-.03-.22,0-.29.1-.06.09-.06.22.01.3ZM5.52,125.05c-4.81,10.49-4.46,18.69-.59,29.05.05.12.17.19.29.16s.21-.14.2-.26c-.62-12.62,2.83-21.65,10.3-27.81-8.25,9.85-4.35,29.56,8.82,29.56,9.59,0,17.52-7.98,19.46-17.53.03-.12-.04-.24-.16-.29-.12-.04-.25,0-.31.11-2.84,4.76-7.41,7.85-12.46,7.85-8.13,0-10.54-6.47-10.54-11,0-6.19,4.93-11.34,8.71-11.34,3.44,0,5.04,2.82,5.04,4.93,0,3.9-3,7.17-6.38,8.16-.12.04-.2.15-.18.28s.12.22.25.22c4.11.03,7.58-1.85,9.63-5.57.27,2.88.27,4.69-.64,7.72-.04.12.02.24.12.3.11.05.24.03.32-.07,7.36-9.39,3.84-25.62-1.98-32.36,5.53,3.98,10.42,12.63,10.34,24.39,0,.12.08.23.21.25.12.02.24-.04.28-.15,4.11-10.25,1.93-29.25-9.28-39.85,2.88-.4,5.87-.35,9.12.69.12.04.24-.01.3-.12.06-.11.04-.24-.06-.32-4.09-3.46-9.81-4.54-15.27-4.54,4.7,5.5,3.14,16.55-4.35,16.55-5.35,0-7.78-8.3-3.65-12.78.08-.09.09-.21.03-.31-.06-.1-.19-.14-.3-.1-4.78,1.66-9.95,5.79-9.95,11.02s4.81,9.39,11.8,9.05c-8.82,2.5-18.05-.27-22.88-6.25-.07-.09-.2-.12-.31-.07-.11.05-.16.17-.13.29,2.79,10.71,11.97,15.2,23.44,13.71-9.28,3.76-23.25.48-29.42-7.31-.07-.09-.2-.12-.31-.07-.11.05-.16.17-.14.28,1.37,6.62,4.86,11.56,10.62,13.52Z"/><path class="cls-3" d="m87.47,34.69c.02-.12.12-.21.25-.21,12.91-.13,24.75-3.27,33.97-11.51-8.03,5.56-22.94,7.51-31.53,3.62-.11-.05-.17-.17-.14-.29.03-.12.13-.2.25-.2,10.68.29,19.28-3.01,25.98-8.96-6.87-.42-12.57-4.74-12.56-9.84,0-.12.08-.22.2-.25.12-.03.23.04.28.14,1.12,2.49,4.75,3.78,8.58,2.88,4.18-.98,7-4.19,6.3-7.16-.47-2.01-2.44-3.4-4.95-3.79-.13-.02-.22-.13-.22-.26,0-.13.1-.23.23-.25,1.07-.1,2.18-.11,3.32,0,6.49.62,11.51,4.6,11.95,9.18,4.71-.55,8.88-3.16,10.38-6.77.04-.11.16-.17.28-.15.12.02.2.11.21.23.38,4.75-1.26,7.84-4.97,10.85,5.38-2.06,11.45-2.16,17.26.54.11.05.16.16.14.28-.02.12-.12.2-.24.2-4.88.19-8.42,1.76-11.73,5.07,18.25-5.13,33.09,6.2,27.95,23.05-.04.12-.15.19-.27.18-.12-.01-.22-.11-.23-.23-.92-9.71-7.7-16.12-17.86-17.08,5.39,2.06,11,6.98,11.56,15.53,0,.12-.07.23-.19.26-.12.03-.24-.03-.29-.14-2.8-6.15-8.3-9.27-14.16-9.81,6.33,2.58,10.4,8.6,11.57,16.42.02.12-.05.24-.17.28-.12.04-.25-.02-.3-.12-3.87-7.58-12.16-12.79-22.45-8.81-10.62,4.11-15.27,16.39-16.3,25.04-.02.12-.12.21-.24.22s-.23-.07-.26-.2c-3.72-15.69,3.58-31.95,16.64-38.84-7.1,2-13.44,6.26-17.03,13.35-8.29,1.02-14,3.86-16.86,9.24-.06.11-.18.16-.29.12-.12-.03-.19-.14-.18-.27.18-2.11.94-6.33,4.07-8.27-6.96.01-12.51-.89-17.8-3.01-.11-.05-.18-.16-.15-.28Zm29.49,53.47c-.1-.07-.23-.05-.32.03-.09.08-.1.21-.04.31,1.62,2.8.14,6.81-3.05,6.81-5.72,0-8.47-10.77-7.6-20.59,2.16,5.76,4.03,8.05,7.35,10.79.09.08.23.08.32,0,.09-.08.12-.21.06-.32-4.86-9.08-5.9-16.07-5.9-24.09,1.46,5.96,3.2,9.32,8.13,14.38.09.09.22.1.32.03.1-.07.14-.2.09-.32-5.3-11.59-4.89-24.45-.95-34.26.04-.1.01-.21-.06-.28-.08-.07-.19-.09-.29-.04-5.21,2.55-8.26,4.23-12.75,10.39,1.36,7.4.23,11.05-3.17,17.2,3.94-9.92,1.84-23.89-8.19-29.59-.11-.06-.25-.03-.32.06-.08.1-.07.24.02.33,3.78,3.96,6.53,10.63,4.16,17.93,1.53-10.39-7.6-19.12-17.78-19.12-9.6,0-16.15,7.51-15.61,14.94.54,7.37,5.44,10.97,9.67,12.5.11.04.24,0,.3-.1.06-.1.05-.23-.03-.32-5.61-5.69-6.38-16.49,3.58-19.76-5.86,5.06-3.69,16.83,5.69,17.72.12.01.23-.06.26-.17s0-.23-.1-.3c-2.01-1.28-3.68-3.77-3.68-6.57,0-4.67,3.42-6.51,5.68-6.51,3.42,0,6.26,3.26,6.26,8.18,0,5.84-5.26,10.68-12.02,11.44-6.63.73-12.78-2.15-15.75-6.46-.07-.1-.2-.14-.31-.09s-.17.18-.14.29c3.02,11.7,16.8,16.88,26.89,9.51-6.61,7.5-17.01,7.61-25.72-.09-.09-.08-.23-.08-.32,0-.1.07-.13.21-.07.31,2.67,5.41,9.25,11.82,18.61,10.88,8.56-.86,13.52-9.01,14.52-15.69.56,8.52-1.39,14.54-8.75,20.15-.1.07-.13.21-.07.32.05.11.18.16.3.13,6.79-1.96,12.23-5.43,15.05-12.54,0,6.16-2.14,12.37-7.53,16.51-.1.07-.13.21-.07.31s.18.16.3.13c3.45-.98,6.17-2.49,8.14-5.19,1.31,11.1,6.52,17.69,12.52,17.69,4.12,0,7.2-3.03,7.2-7.87,0-2.83-1.49-6.8-4.81-9.02ZM216.19-3.45c-3.16-3.9-9.54-5.39-16.43-3.99.51-4.3-.33-8.79-1.61-11.48-.05-.11-.17-.17-.29-.14-.12.03-.2.14-.19.26.37,8.77-4.62,15.84-13.45,18.91,6.91-4.76,8.93-14.19,5.64-19.07-.07-.1-.2-.14-.31-.09-.11.04-.18.16-.15.28.37,2.06-.61,4.68-2.71,6.73-2.91,2.81-6.85,3.45-8.81,1.43-1.96-2.03-1.2-5.95,1.71-8.76,1.06-1.03,2.26-1.76,3.45-2.18.11-.04.18-.15.17-.27-.01-.12-.11-.21-.23-.22-6.39-.55-10.77,3.25-13.52,7.88-2.79,4.71-7.57,8.41-13.21,7.67-.12-.02-.23.05-.27.17-.04.11,0,.24.11.3,2.8,1.68,5.87,2.38,9.86,1.05-5.79,4.91-14.05,7.74-21.84,5.23-.11-.04-.23,0-.29.1-.06.1-.05.22.03.31,5.91,6.56,17.69,6.7,25.11,1.37-3.04,4.32-7.07,7.48-14.29,8.48-.12.02-.2.11-.22.22-.01.12.05.23.16.27,8.29,3.08,16.6-.04,23.45-8.21-2.99,6.38-7.91,11.48-14.77,14.01-.12.04-.18.16-.16.28.02.12.12.21.24.21,3.94.08,7.49-.86,12.27-3.57-3.51,5.69-2.74,15.64,2.37,22.26.07.09.2.12.3.08.11-.05.17-.16.15-.27-1.18-7.2,1.3-15.33,5.61-19.64-2.15,7.63,0,14.58,5.9,19.64.07.06.17.08.26.04.09-.03.15-.11.16-.2,1.23-9.42,11.77-18.97,20.6-19.78.12-.01.22-.11.23-.24s-.07-.24-.2-.26c-4.28-.97-8.69-.49-12.39,1.03,2.66-2.93,5.94-5.11,9.56-6.25.12-.04.19-.15.18-.27-.01-.12-.11-.21-.23-.22-4.51-.31-8.92,1.01-12.73,3.54,4.36-6.62,10.98-11.54,19.43-13.51.12-.03.2-.14.2-.26,0-.12-.1-.22-.23-.24-11.92-1.3-21.75,3.32-28.22,11.92,1.65-4.9,6.37-9.76,12.95-12.62,5.85-2.54,11.85-2.95,16.42-1.51.11.03.22,0,.29-.1.06-.09.06-.21-.01-.3Zm-52.91,75.57c4.81-10.49,4.46-18.69.59-29.05-.04-.12-.17-.18-.29-.16-.12.03-.21.14-.2.26.62,12.62-2.83,21.65-10.3,27.81,8.25-9.85,4.35-29.56-8.82-29.56-9.59,0-17.52,7.98-19.45,17.52-.03.12.04.24.16.29.12.04.25,0,.31-.11,2.84-4.76,7.41-7.85,12.46-7.85,8.13,0,10.54,6.47,10.54,11,0,6.19-4.93,11.34-8.71,11.34-3.44,0-5.04-2.82-5.04-4.93,0-3.9,3-7.17,6.38-8.16.12-.04.2-.15.18-.28-.02-.12-.12-.22-.25-.22-4.11-.03-7.58,1.86-9.63,5.57-.27-2.87-.27-4.69.64-7.72.04-.12-.02-.24-.12-.3-.11-.06-.24-.03-.32.07-7.36,9.39-3.84,25.62,1.98,32.36-5.53-3.98-10.42-12.63-10.34-24.39,0-.12-.08-.23-.21-.25-.12-.03-.24.04-.28.15-4.11,10.25-1.93,29.25,9.28,39.85-2.88.4-5.87.35-9.12-.69-.12-.04-.24.01-.3.12-.06.11-.04.24.06.32,4.09,3.46,9.81,4.54,15.27,4.54-4.7-5.5-3.14-16.55,4.36-16.55,5.35,0,7.78,8.3,3.65,12.78-.08.09-.09.21-.03.31.06.1.19.14.3.1,4.78-1.65,9.95-5.79,9.95-11.02s-4.81-9.39-11.8-9.05c8.82-2.51,18.05.27,22.88,6.25.07.09.21.12.31.07.11-.05.16-.18.13-.29-2.79-10.72-11.97-15.2-23.44-13.71,9.28-3.76,23.25-.48,29.42,7.31.07.09.2.12.31.07.11-.05.16-.17.14-.28-1.37-6.62-4.86-11.56-10.62-13.52Z"/><path class="cls-7" d="m189.67,52.83c-.02.12-.12.21-.25.21-12.91.14-24.75,3.27-33.97,11.52,8.03-5.56,22.94-7.51,31.53-3.62.11.05.17.17.14.29-.03.12-.13.2-.25.2-10.68-.29-19.28,3.01-25.98,8.96,6.87.42,12.57,4.74,12.56,9.85,0,.12-.08.22-.2.25-.12.02-.23-.04-.28-.14-1.12-2.49-4.75-3.78-8.58-2.88-4.18.98-7,4.19-6.3,7.17.47,2.01,2.44,3.4,4.95,3.79.13.02.22.13.22.26,0,.13-.1.23-.23.25-1.07.1-2.18.11-3.32,0-6.49-.62-11.51-4.59-11.95-9.18-4.71.55-8.88,3.16-10.38,6.77-.04.11-.16.17-.28.15-.12-.02-.2-.11-.21-.23-.38-4.75,1.26-7.84,4.97-10.85-5.38,2.06-11.45,2.16-17.26-.54-.11-.05-.16-.17-.14-.28.02-.12.12-.2.24-.2,4.88-.19,8.42-1.76,11.73-5.07-18.26,5.13-33.09-6.2-27.96-23.05.04-.12.15-.19.27-.18s.22.11.23.23c.92,9.71,7.7,16.12,17.86,17.08-5.39-2.06-11-6.97-11.56-15.53,0-.12.07-.23.19-.26.12-.03.24.03.29.14,2.8,6.15,8.3,9.26,14.16,9.81-6.33-2.58-10.4-8.6-11.57-16.42-.02-.12.05-.24.17-.28.12-.04.25.02.3.13,3.87,7.58,12.16,12.79,22.45,8.81,10.62-4.11,15.27-16.38,16.3-25.04.02-.12.12-.22.24-.22.12,0,.23.08.26.2,3.72,15.69-3.58,31.95-16.64,38.84,7.1-2,13.44-6.26,17.03-13.35,8.29-1.02,14-3.86,16.86-9.24.06-.11.18-.16.29-.12.12.04.19.15.18.27-.18,2.11-.94,6.33-4.07,8.27,6.96-.01,12.51.89,17.8,3.01.11.04.18.16.15.28ZM160.18-.64c.1.06.23.05.32-.03.09-.08.1-.21.04-.31-1.62-2.8-.14-6.81,3.05-6.81,5.72,0,8.47,10.77,7.6,20.59-2.16-5.75-4.03-8.05-7.35-10.79-.09-.08-.23-.08-.32,0-.09.08-.12.21-.06.32,4.86,9.08,5.9,16.06,5.9,24.08-1.46-5.96-3.2-9.32-8.13-14.38-.09-.09-.22-.1-.32-.03-.1.07-.14.2-.09.31,5.3,11.59,4.89,24.45.95,34.26-.04.1-.01.21.06.28.08.07.19.09.29.04,5.21-2.55,8.26-4.23,12.75-10.39-1.36-7.4-.23-11.05,3.17-17.19-3.94,9.92-1.84,23.89,8.19,29.59.11.06.25.04.32-.06.08-.1.07-.24-.02-.33-3.78-3.96-6.53-10.63-4.16-17.93-1.53,10.39,7.6,19.11,17.78,19.11,9.6,0,16.15-7.51,15.61-14.94-.54-7.37-5.44-10.97-9.67-12.5-.11-.04-.24,0-.3.1-.06.1-.05.23.03.31,5.61,5.69,6.38,16.49-3.58,19.76,5.86-5.06,3.69-16.83-5.69-17.72-.12,0-.23.06-.26.17-.04.11,0,.23.1.29,2.01,1.28,3.68,3.77,3.68,6.57,0,4.67-3.42,6.51-5.68,6.51-3.42,0-6.26-3.26-6.26-8.18,0-5.84,5.26-10.68,12.02-11.43,6.63-.74,12.78,2.15,15.75,6.46.07.1.2.14.31.09.11-.05.17-.17.14-.29-3.02-11.7-16.8-16.88-26.89-9.51,6.61-7.5,17.01-7.61,25.72.09.09.08.22.09.32.01.1-.07.13-.21.07-.31-2.67-5.41-9.25-11.82-18.61-10.88-8.56.86-13.52,9.02-14.52,15.69-.56-8.52,1.39-14.54,8.75-20.14.1-.07.13-.21.07-.32-.05-.11-.18-.16-.3-.13-6.79,1.96-12.23,5.42-15.05,12.54,0-6.16,2.14-12.37,7.53-16.51.1-.07.13-.21.07-.32-.05-.11-.18-.16-.29-.13-3.45.98-6.17,2.49-8.14,5.18-1.31-11.1-6.52-17.69-12.53-17.69-4.12,0-7.21,3.03-7.21,7.87,0,2.83,1.49,6.8,4.81,9.02ZM60.95,90.98c3.16,3.9,9.54,5.39,16.43,3.99-.51,4.3.33,8.79,1.61,11.49.05.11.17.17.29.14.12-.03.2-.14.19-.26-.37-8.77,4.62-15.84,13.45-18.91-6.91,4.76-8.93,14.19-5.64,19.06.07.1.2.14.31.09.11-.04.18-.16.15-.28-.37-2.06.61-4.68,2.71-6.72,2.91-2.81,6.85-3.45,8.81-1.43,1.96,2.03,1.2,5.95-1.71,8.76-1.06,1.03-2.26,1.76-3.45,2.19-.11.04-.18.15-.17.27.01.12.11.21.23.22,6.39.55,10.77-3.25,13.52-7.88,2.79-4.71,7.57-8.41,13.21-7.67.12.02.23-.05.27-.17.04-.11,0-.24-.11-.3-2.8-1.68-5.87-2.38-9.86-1.05,5.8-4.91,14.05-7.74,21.84-5.23.11.04.23,0,.29-.1.06-.1.05-.22-.03-.31-5.91-6.56-17.69-6.7-25.11-1.37,3.04-4.32,7.07-7.49,14.29-8.48.12-.02.21-.11.22-.22.01-.12-.05-.22-.16-.27-8.29-3.08-16.6.04-23.45,8.22,2.99-6.38,7.91-11.49,14.77-14.01.12-.04.18-.16.16-.28-.02-.12-.12-.21-.24-.21-3.94-.08-7.49.86-12.26,3.57,3.51-5.69,2.74-15.64-2.37-22.26-.07-.09-.2-.12-.3-.08-.11.05-.17.16-.15.28,1.18,7.2-1.3,15.33-5.61,19.64,2.15-7.63,0-14.58-5.9-19.64-.07-.06-.17-.08-.26-.04-.09.03-.15.11-.16.2-1.23,9.42-11.77,18.97-20.6,19.78-.12.01-.22.11-.23.24,0,.12.07.24.2.26,4.28.97,8.69.49,12.39-1.03-2.66,2.93-5.94,5.11-9.55,6.24-.12.04-.19.15-.18.27.01.12.11.22.23.22,4.51.31,8.92-1.01,12.73-3.54-4.36,6.62-10.98,11.54-19.43,13.51-.12.03-.2.14-.2.26,0,.12.1.22.23.24,11.92,1.3,21.75-3.32,28.22-11.92-1.65,4.9-6.37,9.76-12.95,12.62-5.85,2.54-11.85,2.95-16.42,1.51-.11-.03-.22,0-.29.1-.06.09-.06.22.01.3ZM113.86,15.41c-4.81,10.49-4.46,18.69-.59,29.05.04.12.17.19.29.16.12-.03.21-.14.2-.26-.62-12.62,2.83-21.65,10.3-27.81-8.25,9.85-4.35,29.56,8.82,29.56,9.59,0,17.52-7.98,19.46-17.53.03-.12-.04-.24-.16-.29-.12-.04-.25,0-.31.11-2.84,4.76-7.41,7.85-12.46,7.85-8.13,0-10.54-6.47-10.54-11,0-6.19,4.93-11.34,8.71-11.34,3.44,0,5.04,2.82,5.04,4.93,0,3.9-3,7.17-6.37,8.16-.12.04-.2.15-.18.28.02.12.12.22.25.22,4.11.03,7.58-1.85,9.63-5.57.27,2.87.27,4.69-.64,7.72-.04.12.02.24.12.3.11.05.24.03.32-.07,7.36-9.39,3.84-25.62-1.98-32.36,5.53,3.98,10.42,12.63,10.34,24.39,0,.12.08.23.21.25.12.02.24-.04.28-.15,4.11-10.25,1.93-29.25-9.28-39.85,2.88-.4,5.87-.35,9.12.69.12.04.24-.01.3-.12.06-.11.04-.24-.06-.32-4.09-3.46-9.81-4.54-15.27-4.54,4.7,5.5,3.14,16.55-4.35,16.55-5.35,0-7.78-8.3-3.65-12.78.08-.09.09-.21.03-.31-.06-.1-.19-.14-.3-.1-4.78,1.66-9.95,5.79-9.95,11.02s4.81,9.39,11.8,9.05c-8.82,2.5-18.05-.27-22.88-6.25-.07-.09-.2-.12-.31-.07-.11.05-.16.17-.13.29,2.79,10.71,11.97,15.2,23.44,13.71-9.28,3.76-23.25.48-29.42-7.31-.07-.09-.2-.12-.31-.07-.11.05-.16.17-.14.28,1.37,6.62,4.86,11.56,10.62,13.52Z"/><path class="cls-3" d="m-20.86,34.69c.02-.12.12-.21.25-.21,12.91-.13,24.75-3.27,33.97-11.51-8.03,5.56-22.94,7.51-31.53,3.62-.11-.05-.17-.17-.14-.29.03-.12.13-.2.25-.2,10.68.29,19.28-3.01,25.98-8.96-6.87-.42-12.57-4.74-12.56-9.84,0-.12.08-.22.2-.25.12-.03.23.04.28.14,1.12,2.49,4.75,3.78,8.58,2.88,4.18-.98,7-4.19,6.3-7.16-.47-2.01-2.44-3.4-4.95-3.79-.13-.02-.22-.13-.22-.26,0-.13.1-.23.23-.25,1.07-.1,2.18-.11,3.32,0,6.49.62,11.51,4.6,11.95,9.18,4.71-.55,8.88-3.16,10.38-6.77.04-.11.16-.17.28-.15.12.02.2.11.21.23.38,4.75-1.26,7.84-4.97,10.85,5.38-2.06,11.45-2.16,17.26.54.11.05.16.16.14.28-.02.12-.12.2-.24.2-4.88.19-8.42,1.76-11.73,5.07,18.25-5.13,33.09,6.2,27.95,23.05-.04.12-.15.19-.27.18-.12-.01-.22-.11-.23-.23-.92-9.71-7.7-16.12-17.86-17.08,5.39,2.06,11,6.98,11.56,15.53,0,.12-.07.23-.19.26-.12.03-.24-.03-.29-.14-2.8-6.15-8.3-9.27-14.16-9.81,6.33,2.58,10.4,8.6,11.57,16.42.02.12-.05.24-.17.28-.12.04-.25-.02-.3-.12-3.87-7.58-12.16-12.79-22.45-8.81-10.62,4.11-15.27,16.39-16.3,25.04-.02.12-.12.21-.24.22-.12,0-.23-.07-.26-.2-3.72-15.69,3.58-31.95,16.64-38.84-7.1,2-13.44,6.26-17.03,13.35-8.29,1.02-14,3.86-16.86,9.24-.06.11-.18.16-.29.12-.12-.03-.19-.14-.18-.27.18-2.11.94-6.33,4.07-8.27-6.97.01-12.51-.89-17.8-3.01-.11-.05-.18-.16-.15-.28Zm29.49,53.47c-.1-.07-.23-.05-.32.03-.09.08-.1.21-.04.31,1.62,2.8.14,6.81-3.05,6.81-5.72,0-8.47-10.77-7.6-20.59,2.16,5.76,4.03,8.05,7.35,10.79.09.08.23.08.32,0,.09-.08.12-.21.06-.32C.49,76.12-.55,69.14-.55,61.12c1.46,5.96,3.2,9.32,8.13,14.38.09.09.22.1.32.03.1-.07.14-.2.09-.32-5.3-11.59-4.89-24.45-.95-34.26.04-.1.01-.21-.06-.28-.08-.07-.19-.09-.29-.04-5.21,2.55-8.26,4.23-12.75,10.39,1.36,7.4.23,11.05-3.17,17.2,3.94-9.92,1.84-23.89-8.19-29.59-.11-.06-.25-.03-.32.06-.08.1-.07.24.02.33,3.78,3.96,6.53,10.63,4.16,17.93,1.53-10.39-7.6-19.12-17.78-19.12-9.6,0-16.15,7.51-15.61,14.94.54,7.37,5.44,10.97,9.67,12.5.11.04.24,0,.3-.1.06-.1.05-.23-.03-.32-5.61-5.69-6.38-16.49,3.58-19.76-5.86,5.06-3.69,16.83,5.69,17.72.12.01.23-.06.26-.17s0-.23-.1-.3c-2.01-1.28-3.68-3.77-3.68-6.57,0-4.67,3.42-6.51,5.68-6.51,3.42,0,6.26,3.26,6.26,8.18,0,5.84-5.26,10.68-12.02,11.44-6.63.73-12.78-2.15-15.75-6.46-.07-.1-.2-.14-.31-.09-.11.05-.17.18-.14.29,3.02,11.7,16.8,16.88,26.89,9.51-6.61,7.5-17.01,7.61-25.72-.09-.09-.08-.23-.08-.32,0-.1.07-.13.21-.07.31,2.67,5.41,9.25,11.82,18.61,10.88,8.56-.86,13.52-9.01,14.52-15.69.56,8.52-1.39,14.54-8.75,20.15-.1.07-.13.21-.07.32.05.11.18.16.3.13,6.79-1.96,12.23-5.43,15.05-12.54,0,6.16-2.14,12.37-7.53,16.51-.1.07-.13.21-.07.31s.18.16.3.13c3.45-.98,6.17-2.49,8.14-5.19,1.31,11.1,6.52,17.69,12.53,17.69,4.12,0,7.21-3.03,7.21-7.87,0-2.83-1.49-6.8-4.81-9.02ZM107.85-3.45c-3.16-3.9-9.54-5.39-16.43-3.99.51-4.3-.33-8.79-1.61-11.48-.05-.11-.17-.17-.29-.14-.12.03-.2.14-.19.26.37,8.77-4.62,15.84-13.45,18.91,6.91-4.76,8.93-14.19,5.64-19.07-.07-.1-.2-.14-.31-.09-.11.04-.18.16-.15.28.37,2.06-.61,4.68-2.71,6.73-2.91,2.81-6.85,3.45-8.81,1.43-1.96-2.03-1.2-5.95,1.71-8.76,1.06-1.03,2.26-1.76,3.45-2.18.11-.04.18-.15.17-.27-.01-.12-.11-.21-.23-.22-6.39-.55-10.77,3.25-13.52,7.88-2.79,4.71-7.57,8.41-13.21,7.67-.12-.02-.23.05-.27.17-.04.11,0,.24.11.3,2.8,1.68,5.87,2.38,9.86,1.05C51.8-.08,43.55,2.75,35.75.24c-.11-.04-.23,0-.29.1-.06.1-.05.22.03.31,5.91,6.56,17.69,6.7,25.11,1.37-3.04,4.32-7.07,7.48-14.29,8.48-.12.02-.2.11-.22.22-.01.12.05.23.16.27,8.29,3.08,16.6-.04,23.45-8.21-2.99,6.38-7.91,11.48-14.77,14.01-.12.04-.18.16-.16.28.02.12.12.21.24.21,3.94.08,7.49-.86,12.27-3.57-3.51,5.69-2.74,15.64,2.37,22.26.07.09.2.12.3.08.11-.05.17-.16.15-.27-1.18-7.2,1.3-15.33,5.61-19.64-2.15,7.63,0,14.58,5.9,19.64.07.06.17.08.26.04.09-.03.15-.11.16-.2,1.23-9.42,11.77-18.97,20.6-19.78.12-.01.22-.11.23-.24s-.07-.24-.2-.26c-4.28-.97-8.69-.49-12.39,1.03,2.66-2.93,5.94-5.11,9.55-6.25.12-.04.19-.15.18-.27-.01-.12-.11-.21-.23-.22-4.51-.31-8.92,1.01-12.73,3.54,4.36-6.62,10.98-11.54,19.43-13.51.12-.03.2-.14.2-.26,0-.12-.1-.22-.23-.24-11.92-1.3-21.75,3.32-28.22,11.92,1.65-4.9,6.37-9.76,12.95-12.62,5.85-2.54,11.85-2.95,16.42-1.51.11.03.22,0,.29-.1.06-.09.06-.21-.01-.3Zm-52.9,75.57c4.81-10.49,4.46-18.69.59-29.05-.04-.12-.17-.18-.29-.16-.12.03-.21.14-.2.26.62,12.62-2.83,21.65-10.3,27.81,8.25-9.85,4.35-29.56-8.82-29.56-9.59,0-17.52,7.98-19.45,17.52-.03.12.04.24.16.29.12.04.25,0,.31-.11,2.84-4.76,7.41-7.85,12.46-7.85,8.13,0,10.54,6.47,10.54,11,0,6.19-4.93,11.34-8.71,11.34-3.44,0-5.04-2.82-5.04-4.93,0-3.9,3-7.17,6.38-8.16.12-.04.2-.15.18-.28-.02-.12-.12-.22-.25-.22-4.11-.03-7.58,1.86-9.63,5.57-.27-2.87-.27-4.69.64-7.72.04-.12-.02-.24-.12-.3-.11-.06-.24-.03-.32.07-7.36,9.39-3.84,25.62,1.98,32.36-5.53-3.98-10.42-12.63-10.34-24.39,0-.12-.08-.23-.2-.25-.12-.03-.24.04-.28.15-4.11,10.25-1.93,29.25,9.28,39.85-2.88.4-5.87.35-9.12-.69-.12-.04-.24.01-.3.12-.06.11-.04.24.06.32,4.09,3.46,9.81,4.54,15.27,4.54-4.7-5.5-3.14-16.55,4.36-16.55,5.35,0,7.78,8.3,3.65,12.78-.08.09-.09.21-.03.31.06.1.19.14.3.1,4.78-1.65,9.95-5.79,9.95-11.02s-4.81-9.39-11.8-9.05c8.82-2.51,18.05.27,22.88,6.25.07.09.21.12.31.07.11-.05.16-.18.13-.29-2.79-10.72-11.97-15.2-23.44-13.71,9.28-3.76,23.25-.48,29.42,7.31.07.09.2.12.31.07.11-.05.16-.17.14-.28-1.37-6.62-4.86-11.56-10.62-13.52Z"/><path class="cls-7" d="m81.33,52.83c-.02.12-.12.21-.25.21-12.91.14-24.75,3.27-33.97,11.52,8.03-5.56,22.94-7.51,31.53-3.62.11.05.17.17.14.29-.03.12-.13.2-.25.2-10.68-.29-19.28,3.01-25.98,8.96,6.87.42,12.57,4.74,12.56,9.85,0,.12-.08.22-.2.25-.12.02-.23-.04-.28-.14-1.12-2.49-4.75-3.78-8.58-2.88-4.18.98-7,4.19-6.3,7.17.47,2.01,2.44,3.4,4.95,3.79.13.02.22.13.22.26,0,.13-.1.23-.23.25-1.07.1-2.18.11-3.32,0-6.49-.62-11.51-4.59-11.95-9.18-4.71.55-8.88,3.16-10.38,6.77-.04.11-.16.17-.28.15-.12-.02-.2-.11-.21-.23-.38-4.75,1.26-7.84,4.97-10.85-5.38,2.06-11.45,2.16-17.26-.54-.11-.05-.16-.17-.14-.28.02-.12.12-.2.24-.2,4.88-.19,8.42-1.76,11.73-5.07C9.82,74.61-5.01,63.28.12,46.43c.04-.12.15-.19.27-.18s.22.11.23.23c.92,9.71,7.7,16.12,17.86,17.08-5.39-2.06-11-6.97-11.56-15.53,0-.12.07-.23.19-.26.12-.03.24.03.29.14,2.8,6.15,8.3,9.26,14.16,9.81-6.33-2.58-10.4-8.6-11.57-16.42-.02-.12.05-.24.17-.28.12-.04.25.02.3.13,3.87,7.58,12.16,12.79,22.45,8.81,10.62-4.11,15.27-16.38,16.3-25.04.02-.12.12-.22.24-.22.12,0,.23.08.26.2,3.72,15.69-3.58,31.95-16.64,38.84,7.1-2,13.44-6.26,17.03-13.35,8.29-1.02,14-3.86,16.86-9.24.06-.11.18-.16.29-.12.12.04.19.15.18.27-.18,2.11-.94,6.33-4.07,8.27,6.96-.01,12.51.89,17.8,3.01.11.04.18.16.15.28ZM51.84-.64c.1.06.23.05.32-.03.09-.08.1-.21.04-.31-1.62-2.8-.14-6.81,3.05-6.81,5.72,0,8.47,10.77,7.6,20.59-2.16-5.75-4.03-8.05-7.35-10.79-.09-.08-.23-.08-.32,0-.09.08-.12.21-.06.32,4.86,9.08,5.9,16.06,5.9,24.08-1.46-5.96-3.2-9.32-8.13-14.38-.09-.09-.22-.1-.32-.03-.1.07-.14.2-.09.31,5.3,11.59,4.89,24.45.95,34.26-.04.1-.01.21.06.28.08.07.19.09.29.04,5.21-2.55,8.26-4.23,12.75-10.39-1.36-7.4-.23-11.05,3.17-17.19-3.94,9.92-1.84,23.89,8.19,29.59.11.06.25.04.32-.06.08-.1.07-.24-.02-.33-3.78-3.96-6.53-10.63-4.16-17.93-1.53,10.39,7.6,19.11,17.78,19.11,9.6,0,16.15-7.51,15.61-14.94-.54-7.37-5.44-10.97-9.67-12.5-.11-.04-.24,0-.3.1-.06.1-.05.23.03.31,5.61,5.69,6.38,16.49-3.58,19.76,5.86-5.06,3.69-16.83-5.69-17.72-.12,0-.23.06-.26.17-.04.11,0,.23.1.29,2.01,1.28,3.68,3.77,3.68,6.57,0,4.67-3.42,6.51-5.68,6.51-3.42,0-6.26-3.26-6.26-8.18,0-5.84,5.26-10.68,12.02-11.43,6.63-.74,12.78,2.15,15.75,6.46.07.1.2.14.31.09.11-.05.17-.17.14-.29-3.02-11.7-16.8-16.88-26.89-9.51,6.61-7.5,17.01-7.61,25.72.09.09.08.22.09.32.01.1-.07.13-.21.07-.31-2.67-5.41-9.25-11.82-18.61-10.88-8.56.86-13.52,9.02-14.52,15.69-.56-8.52,1.39-14.54,8.75-20.14.1-.07.13-.21.07-.32s-.18-.16-.3-.13c-6.79,1.96-12.23,5.42-15.05,12.54,0-6.16,2.14-12.37,7.53-16.51.1-.07.13-.21.07-.32-.05-.11-.18-.16-.29-.13-3.45.98-6.17,2.49-8.14,5.18-1.31-11.1-6.52-17.69-12.53-17.69-4.12,0-7.21,3.03-7.21,7.87,0,2.83,1.49,6.8,4.81,9.02ZM-47.39,90.98c3.16,3.9,9.54,5.39,16.43,3.99-.51,4.3.33,8.79,1.61,11.49.05.11.17.17.29.14s.2-.14.19-.26c-.38-8.77,4.62-15.84,13.45-18.91-6.91,4.76-8.93,14.19-5.64,19.06.07.1.2.14.31.09.11-.04.18-.16.15-.28-.37-2.06.61-4.68,2.71-6.72,2.91-2.81,6.85-3.45,8.81-1.43,1.96,2.03,1.2,5.95-1.71,8.76-1.06,1.03-2.26,1.76-3.45,2.19-.11.04-.18.15-.17.27.01.12.11.21.23.22,6.39.55,10.77-3.25,13.52-7.88,2.8-4.71,7.57-8.41,13.21-7.67.12.02.23-.05.27-.17.04-.11,0-.24-.11-.3-2.8-1.68-5.87-2.38-9.86-1.05,5.79-4.91,14.05-7.74,21.84-5.23.11.04.23,0,.29-.1.06-.1.05-.22-.03-.31-5.91-6.56-17.69-6.7-25.11-1.37,3.04-4.32,7.07-7.49,14.29-8.48.12-.02.21-.11.22-.22.01-.12-.05-.22-.16-.27-8.29-3.08-16.6.04-23.45,8.22,2.99-6.38,7.91-11.49,14.77-14.01.12-.04.18-.16.16-.28-.02-.12-.12-.21-.24-.21-3.94-.08-7.49.86-12.27,3.57,3.51-5.69,2.74-15.64-2.37-22.26-.07-.09-.2-.12-.3-.08-.11.05-.17.16-.15.28,1.18,7.2-1.3,15.33-5.61,19.64,2.15-7.63,0-14.58-5.9-19.64-.07-.06-.17-.08-.26-.04-.09.03-.15.11-.16.2-1.23,9.42-11.77,18.97-20.6,19.78-.12.01-.22.11-.23.24s.07.24.2.26c4.28.97,8.69.49,12.39-1.03-2.66,2.93-5.94,5.11-9.55,6.24-.12.04-.19.15-.18.27.01.12.11.22.23.22,4.51.31,8.92-1.01,12.73-3.54-4.36,6.62-10.98,11.54-19.43,13.51-.12.03-.2.14-.2.26,0,.12.1.22.23.24,11.92,1.3,21.75-3.32,28.22-11.92-1.65,4.9-6.37,9.76-12.95,12.62-5.85,2.54-11.85,2.95-16.42,1.51-.11-.03-.22,0-.29.1-.06.09-.06.22.01.3ZM5.52,15.41c-4.81,10.49-4.46,18.69-.59,29.05.05.12.17.19.29.16s.21-.14.2-.26c-.62-12.62,2.83-21.65,10.3-27.81-8.25,9.85-4.35,29.56,8.82,29.56,9.59,0,17.52-7.98,19.46-17.53.03-.12-.04-.24-.16-.29-.12-.04-.25,0-.31.11-2.84,4.76-7.41,7.85-12.46,7.85-8.13,0-10.54-6.47-10.54-11,0-6.19,4.93-11.34,8.71-11.34,3.44,0,5.04,2.82,5.04,4.93,0,3.9-3,7.17-6.38,8.16-.12.04-.2.15-.18.28s.12.22.25.22c4.11.03,7.58-1.85,9.63-5.57.27,2.87.27,4.69-.64,7.72-.04.12.02.24.12.3.11.05.24.03.32-.07,7.36-9.39,3.84-25.62-1.98-32.36,5.53,3.98,10.42,12.63,10.34,24.39,0,.12.08.23.21.25.12.02.24-.04.28-.15,4.11-10.25,1.93-29.25-9.28-39.85,2.88-.4,5.87-.35,9.12.69.12.04.24-.01.3-.12.06-.11.04-.24-.06-.32-4.09-3.46-9.81-4.54-15.27-4.54,4.7,5.5,3.14,16.55-4.35,16.55-5.35,0-7.78-8.3-3.65-12.78.08-.09.09-.21.03-.31-.06-.1-.19-.14-.3-.1-4.78,1.66-9.95,5.79-9.95,11.02S17.66,1.66,24.65,1.32C15.83,3.82,6.6,1.05,1.77-4.94c-.07-.09-.2-.12-.31-.07-.11.05-.16.17-.13.29,2.79,10.71,11.97,15.2,23.44,13.71C15.49,12.75,1.52,9.47-4.66,1.68c-.07-.09-.2-.12-.31-.07-.11.05-.16.17-.14.28C-3.73,8.51-.24,13.45,5.52,15.41Z"/></pattern></defs><g id="Layer_1-2"><path class="cls-5" d="m1155.68,92.87v114.45h-14.1V59.82h22.88c7.94,38.55,15.91,77.26,23.88,115.96.23,0,.46.02.69.03,1.79-8.89,3.6-17.78,5.38-26.67,5.75-28.88,11.52-57.75,17.16-86.66.46-2.35,1.3-3.1,3.62-3.06,6.48.13,12.96.04,19.7.04v147.94h-15.27v-114.17c-.31-.02-.62-.04-.93-.06-2.3,11.57-4.62,23.14-6.91,34.72-5.03,25.46-10.07,50.92-15.01,76.4-.4,2.07-1.06,3.05-3.33,2.97-4.24-.15-8.48-.04-13.18-.04-7.97-38.21-15.91-76.34-23.86-114.46-.24.04-.48.08-.72.11Z"/><path class="cls-5" d="m678.52,207.59c-5.11,0-9.99.21-14.82-.16-1.1-.08-2.56-1.98-2.99-3.32-6.91-21.49-13.68-43.02-20.47-64.54-4.84-15.34-9.67-30.68-14.52-46.02-.36-1.14-.85-2.25-1.88-3.29v117.13h-14.39V59.5c6.42,0,12.75-.12,19.08.14.89.04,2.1,1.85,2.49,3.05,6.88,21.23,13.65,42.5,20.45,63.76,3.72,11.64,7.46,23.27,11.2,34.91.29.9.61,1.78,1.51,2.57V59.75h14.34v147.85Z"/><path class="cls-5" d="m1276.5,207.44V59.47c1.5,0,2.84-.01,4.18,0,11.24.1,22.5-.09,33.73.37,15.8.66,24.73,8.33,26.58,23.98,1.03,8.7.5,17.72-.44,26.48-.95,8.87-6.46,14.92-15.2,18.12.41.39.66.82,1.02.94,10.16,3.54,16.01,11.08,16.92,21.34.94,10.63,1.27,21.55-.13,32.08-2.05,15.46-11.99,23.66-28.42,24.51-12.58.65-25.22.13-38.24.13Zm16.52-15.1c6.88,0,13.52.47,20.06-.12,8.34-.75,13.33-4.75,13.93-12.14.78-9.65.7-19.44,0-29.11-.48-6.78-4.89-11.77-11.84-12.75-7.22-1.02-14.6-.94-22.16-1.36v55.47Zm-.04-70.27c6.05,0,11.69.34,17.27-.08,8.66-.65,13.83-5,14.53-12.89.64-7.3.52-14.72,0-22.04-.38-5.34-2.98-10.45-8.71-11.37-7.52-1.22-15.25-1.15-23.1-1.65v48.03Z"/><path class="cls-5" d="m461.51,207.5h-16.14v-66.39h-36.51v66.21h-16.37V59.75h16.18v66.01h36.37V59.72h16.47v147.78Z"/><path class="cls-5" d="m1033.87,133.36c0-13.37-.08-26.74.05-40.1.03-3.47.35-7.02,1.15-10.38,3.94-16.59,15.84-25.33,33.46-24.83,20.16.57,32.41,12.53,32.84,33.17.48,22.6.26,45.22.2,67.83-.02,7.48.19,15.06-.9,22.41-3.08,20.93-19,29.49-38.3,27.16-17.84-2.16-27.94-14.26-28.36-32.91-.32-14.11-.06-28.23-.06-42.35-.03,0-.05,0-.08,0Zm51.28.17c0-12.49.2-24.99-.1-37.47-.11-4.66-.79-9.49-2.28-13.88-2.23-6.58-7.83-9.03-14.47-9.18-6.87-.16-12.86,1.93-15.56,8.71-1.57,3.95-2.46,8.43-2.49,12.68-.22,25.48-.12,50.96-.09,76.44,0,2.49.07,5.01.35,7.48,1.08,9.41,6.75,15.21,15.18,15.66,10.76.58,16.66-3.74,18.77-14.03.57-2.78.65-5.7.66-8.56.07-12.61.03-25.23.03-37.85Z"/><path class="cls-5" d="m568.99,133.46c0,14.99.57,30-.18,44.95-.61,12.29-6,22.64-18.1,27.53-12.78,5.16-25.54,4.71-36.98-3.71-8.98-6.61-11.92-16.61-12.05-27.12-.33-27.86-.34-55.72-.01-83.58.11-9.53,2.94-18.49,10.34-25.31,8.9-8.2,19.66-9.35,30.86-7.52,15.5,2.53,25.27,13.45,25.96,29.8.63,14.96.13,29.97.13,44.95,0,0,.02,0,.03,0Zm-51.09.27c0,13.11-.14,26.22.09,39.32.07,3.8.68,7.75,1.91,11.33,2.2,6.4,8.01,9.64,15.8,9.59,7.63-.04,13.12-3.22,15.18-9.79,1.32-4.21,1.99-8.78,2.03-13.2.19-24.72.11-49.43.06-74.15,0-2.86-.22-5.74-.57-8.59-1.17-9.26-6.95-14.86-15.58-15.25-9.98-.45-16.21,4.27-18.19,13.99-.49,2.42-.7,4.94-.71,7.42-.07,13.11-.03,26.22-.02,39.32Z"/><path class="cls-5" d="m996.08,108.47h-15.99c0-4.31.3-8.54-.08-12.71-.42-4.67-.84-9.5-2.35-13.88-2.22-6.45-7.76-8.77-14.26-8.88-6.55-.11-12.37,1.76-15.11,8.21-1.57,3.69-2.65,7.9-2.68,11.89-.23,26.49-.21,52.98-.01,79.48.03,4.15.84,8.5,2.26,12.39,2.45,6.7,8.05,9.04,14.91,9.04,6.83,0,12.49-2.21,14.97-8.94,1.39-3.78,2.01-7.97,2.24-12.01.36-6.33.1-12.69.1-19.3h15.69c-.44,12.79,1.86,25.85-3.85,38.18-5.72,12.35-19.64,19.13-34.5,16.89-16.6-2.5-26.38-12.72-27.67-29.49-.58-7.58-.55-15.23-.58-22.84-.07-20.49-.07-40.99.02-61.48.02-3.6.3-7.27,1-10.79,3.51-17.47,14.72-26.41,32.53-26.19,18.74.23,29.96,9.94,32.28,28.57.89,7.13.73,14.38,1.07,21.88Z"/><path class="cls-5" d="m720.15,207.32V59.8h60.5v14.58h-43.92v50.55h35.72v14.85h-35.68v52.6h43.82v14.95h-60.44Z"/><path class="cls-5" d="m815.51,59.48c5.41,0,10.28-.21,15.1.16,1.08.08,2.48,2.08,2.93,3.45,6.88,21.36,13.62,42.77,20.4,64.16.37,1.17.79,2.32,1.57,4.57.72-2.1,1.15-3.27,1.53-4.46,6.88-21.49,13.81-42.97,20.58-64.49.81-2.58,1.87-3.64,4.64-3.46,3.82.25,7.66.06,12.06.06-1.68,5.15-3.15,9.73-4.67,14.3-8.56,25.8-17.15,51.59-25.64,77.41-.69,2.08-1.02,4.38-1.03,6.58-.09,15.12-.05,30.23-.05,45.35v4.26h-16.35v-4.03c0-14.99.06-29.98-.06-44.97-.02-2.68-.48-5.47-1.31-8.03-9.57-29.4-19.25-58.76-28.9-88.14-.23-.69-.4-1.39-.79-2.72Z"/><path class="cls-5" d="m837.91,241.5c3.51,0,6.89-.27,10.17.16,1.03.14,2.2,2.05,2.63,3.36,5.64,17.31,11.15,34.65,16.7,51.99.3.92.63,1.83,1.54,2.7v-57.91h8.27v83.8c-.22.14-.42.37-.63.39q-8.7.61-11.34-7.78c-5.74-18.19-11.5-36.37-17.26-54.56-.29-.93-.63-1.85-1.61-2.72v64.9h-8.47v-84.32Z"/><path class="cls-5" d="m824.45,325.89q-9.39.71-12.07-7.68c-5.85-18.43-11.69-36.87-17.54-55.3-.33-1.03-.69-2.05-1.54-3.01v65.94h-8.19v-84.33c3.43,0,6.9-.19,10.33.14.84.08,1.84,1.75,2.21,2.87,5.58,17.21,11.07,34.45,16.59,51.67.44,1.38.95,2.75,2.04,4.02v-58.44h8.17v84.12Z"/><path class="cls-5" d="m972.73,280.95c9.37,3.72,11.18,10.93,11.02,19.14-.07,3.86.13,7.79-.52,11.56-1.54,8.88-6.41,13.54-15.33,14.16-7.44.51-14.93.11-22.62.11v-83.79c8.35,0,16.45-.45,24.48.14,6.51.47,10.86,4.65,11.71,11.23.68,5.27.79,10.69.42,16-.37,5.24-3.22,9.29-9.15,11.46Zm-18.1,36.35c4.27,0,8.14.24,11.96-.06,4.24-.34,6.95-2.57,7.29-6.73.46-5.67.37-11.44-.04-17.12-.26-3.66-2.84-6.29-6.5-6.81-4.12-.59-8.35-.49-12.71-.7v31.42Zm.08-66.96v26.97c3.33,0,6.44.17,9.52-.04,5.1-.34,7.98-2.71,8.45-7.75.41-4.41.2-8.93-.3-13.34-.39-3.42-2.9-5.55-6.39-5.79-3.69-.25-7.4-.06-11.28-.06Z"/><path class="cls-5" d="m934.21,325.93h-9.34c-.89-4.6-1.94-9.07-2.58-13.61-.38-2.67-1.48-3.5-4.13-3.38-4.74.22-9.5.19-14.24.01-2.67-.1-4.04.46-4.39,3.5-.51,4.43-1.65,8.8-2.56,13.39h-8.64c5.38-28.09,10.73-56.07,16.14-84.36,4.08,0,7.94-.18,11.76.14.87.07,2.09,1.79,2.31,2.91,4.55,23.14,8.98,46.3,13.42,69.45.75,3.91,1.48,7.83,2.25,11.93Zm-13.99-25.14c-3.11-15.87-6.14-31.34-9.17-46.82-.23.02-.46.03-.69.05-2.94,15.5-5.88,30.99-8.88,46.77h18.74Z"/><path class="cls-5" d="m774.1,325.93h-9.33c-1.08-5.44-2.17-10.9-3.32-16.64h-21.31c-1.09,5.37-2.21,10.92-3.36,16.63h-8.57c2.01-10.66,3.97-21.17,5.98-31.67,3.14-16.42,6.4-32.81,9.4-49.25.52-2.83,1.55-3.77,4.34-3.57,3.22.23,6.47.05,10.01.05,5.4,28.21,10.75,56.2,16.16,84.44Zm-23.11-71.71c-.25-.03-.5-.05-.75-.08-2.95,15.44-5.9,30.88-8.89,46.54h18.71c-3.07-15.72-6.07-31.09-9.07-46.46Z"/><path class="cls-5" d="m718.1,269.46h-8.85c0-3.55.17-6.99-.04-10.41-.37-6.16-3.69-9.49-9.27-9.65-5.98-.16-10,3.19-10.1,9.58-.26,16.61-.26,33.24.01,49.85.1,6.15,4.24,9.65,9.85,9.55,5.68-.1,9.19-3.61,9.51-9.89.21-4.22.04-8.45.04-12.96h8.92c.06,7.54,1.11,15.26-2.47,22.53-3.36,6.82-11.69,10.23-20.66,8.56-8.44-1.56-13.92-7.52-14.32-16.78-.49-11.23-.37-22.48-.4-33.72-.02-5.99-.08-12.01.35-17.98,1.07-14.85,16.52-22.55,29.3-14.76,5.29,3.22,7.38,8.38,8.05,14.11.44,3.81.08,7.71.08,11.96Z"/><path class="cls-5" d="m1055.46,263.82h-9.12c-.14-2.09-.18-3.94-.39-5.78-.66-5.66-3.94-8.66-9.37-8.67-5.47-.01-8.69,2.95-9.43,8.59-.82,6.23.77,11.72,5.32,16.07,4.15,3.96,8.58,7.64,12.9,11.42,8.25,7.21,11.4,16.2,9.13,26.91-2.21,10.47-9.17,15.24-20.65,14.47-9.26-.62-15.49-6.98-16.34-16.89-.24-2.82-.04-5.67-.04-8.73h8.22c.23,2.89.32,5.73.69,8.52.74,5.47,3.93,8.41,9.12,8.63,5.34.23,8.74-2.57,9.92-8.17,1.31-6.25-.38-11.76-4.79-16.17-4.13-4.15-8.7-7.87-13.11-11.73-8.47-7.42-11.53-16.63-9.18-27.64,1.84-8.61,7.65-13.46,16.64-13.95,9.46-.52,16.31,3.73,18.77,12.12,1,3.4,1.12,7.05,1.69,11Z"/><path class="cls-4" d="m648.91,277.64v4.77h-260.42v-4.77h260.42Z"/><path class="cls-4" d="m1346.32,277.59v4.86h-260.33v-4.86h260.33Z"/><path class="cls-5" d="m996.3,241.69h8.89v84.1h-8.89v-84.1Z"/><path class="cls-6" d="m182.15,329.31c-28.24,0-56.48-.03-84.73.05-2.51,0-3.99-.63-5.31-2.95C61.8,273.44,31.39,220.52.93,167.63c-1.2-2.09-1.27-3.6-.04-5.73C31.36,109.02,61.78,56.11,92.1,3.15,93.49.73,94.97,0,97.66,0c56.23.08,112.47.08,168.7,0,2.55,0,3.96.73,5.27,3.01,30.26,52.86,60.61,105.66,90.99,158.45,1.19,2.08,1.72,3.65.34,6.05-30.43,52.76-60.76,105.57-91.03,158.43-1.42,2.48-2.88,3.45-5.8,3.43-27.99-.13-55.99-.08-83.98-.08Zm.08-320.37c-26.49,0-52.99.04-79.48-.06-2.7-.01-4.17.74-5.55,3.15C68.64,61.97,39.98,111.87,11.27,161.73c-1.28,2.23-1.24,3.84.03,6.05,28.67,49.74,57.28,99.52,85.81,149.34,1.35,2.36,2.76,3.26,5.52,3.26,52.86-.09,105.73-.09,158.59,0,2.78,0,4.18-.98,5.5-3.3,28.59-49.93,57.25-99.82,85.98-149.68,1.16-2.01,1.09-3.4-.05-5.38-28.69-49.87-57.33-99.78-85.89-149.73-1.41-2.47-2.86-3.44-5.8-3.43-26.24.14-52.49.08-78.73.08Z"/><path class="cls-6" d="m97.66,1c27.84.04,56.55.06,85.32.06,27.18,0,55.24-.02,83.4-.05,2.26,0,3.28.59,4.38,2.51,26.37,46.06,55.29,96.41,91,158.45,1.15,1.99,1.44,3.13.34,5.05-29.48,51.11-60.1,104.42-91.03,158.43-1.29,2.25-2.43,2.93-4.88,2.93h-.05c-16.82-.08-33.73-.09-46.58-.09-6.23,0-12.47,0-18.7,0-6.23,0-12.47,0-18.7,0h-17.93s-17.93,0-17.93,0c-14.4,0-31.47,0-48.9.05-2.28,0-3.35-.59-4.41-2.45-28.06-49.01-57.88-100.95-91.18-158.77-1.05-1.82-1.06-2.97-.04-4.74C34.57,105.45,64.41,53.52,92.97,3.64c1.16-2.02,2.25-2.64,4.67-2.64h.02m120.37,6.94c-5.97,0-11.93,0-17.9,0-5.97,0-11.93,0-17.9,0s-11.72,0-17.59,0c-5.86,0-11.72,0-17.58,0-12.99,0-28.42,0-44.31-.07h-.06c-3.08,0-4.86,1.02-6.36,3.66C69.49,58.46,41.38,107.43,10.4,161.23c-1.45,2.52-1.44,4.49.03,7.05,30.26,52.5,58.33,101.35,85.81,149.34,1.55,2.71,3.33,3.76,6.39,3.76,26.36-.04,52.93-.07,78.98-.07s53.35.02,79.62.07c3,0,4.78-1.07,6.35-3.8,28.17-49.19,57.1-99.55,85.97-149.68,1.31-2.27,1.29-4.05-.05-6.38-30.81-53.55-58.9-102.53-85.89-149.73-1.64-2.87-3.43-3.93-6.6-3.93h-.07c-15.57.08-31.12.09-42.93.09M97.64,0C94.97,0,93.49.73,92.1,3.15,61.78,56.11,31.36,109.02.89,161.9c-1.23,2.13-1.16,3.65.04,5.73,30.46,52.89,60.86,105.81,91.18,158.77,1.32,2.31,2.79,2.95,5.27,2.95.01,0,.03,0,.04,0,16.29-.04,32.57-.05,48.86-.05,11.95,0,23.91,0,35.87,0s24.93-.01,37.4-.01c15.53,0,31.05.02,46.58.09.02,0,.04,0,.06,0,2.89,0,4.33-.97,5.74-3.43,30.26-52.86,60.6-105.67,91.03-158.43,1.38-2.4.86-3.98-.34-6.05-30.38-52.79-60.73-105.6-90.99-158.45-1.3-2.28-2.71-3.01-5.25-3.01h-.02c-27.8.03-55.59.05-83.39.05S126.1.04,97.66,0c0,0-.01,0-.02,0h0Zm120.38,8.94c14.31,0,28.63-.02,42.94-.09.02,0,.04,0,.07,0,2.89,0,4.33.98,5.73,3.43,28.56,49.95,57.2,99.86,85.89,149.73,1.14,1.98,1.2,3.37.05,5.38-28.72,49.86-57.38,99.75-85.98,149.68-1.33,2.31-2.71,3.3-5.48,3.3h-.02c-26.54-.05-53.07-.07-79.6-.07s-52.66.02-78.98.07h-.02c-2.74,0-4.15-.91-5.5-3.26-28.53-49.82-57.14-99.6-85.81-149.34-1.27-2.2-1.31-3.82-.03-6.05C39.98,111.87,68.64,61.97,97.2,12.02c1.37-2.4,2.83-3.15,5.5-3.15.02,0,.04,0,.06,0,14.77.06,29.54.07,44.31.07,11.72,0,23.45,0,35.17,0s23.86.01,35.79.01h0Z"/><path class="cls-6" d="m285.59,163.34c1.1,25.74-4.37,48.96-22.15,67.8-18.84,19.95-43.23,24.85-69.92,23.99-.44-25.78,4.06-49.73,23-68.39,18.96-18.68,42.68-24.57,69.07-23.4Z"/><path class="cls-6" d="m279.31,163.2v1c1.73,0,3.52.03,5.32.1,1.01,27.82-6.16,49.47-21.92,66.15-15.31,16.22-35.51,23.77-63.58,23.77-1.5,0-3.06-.02-4.63-.06-.36-30.28,6.66-50.89,22.72-66.71,15.88-15.65,36.19-23.25,62.09-23.25v-1m0,0c-23.87,0-45.34,6.35-62.79,23.54-18.94,18.67-23.44,42.61-23,68.39,1.88.06,3.75.09,5.61.09,24.49,0,46.8-5.54,64.31-24.09,17.78-18.84,23.25-42.06,22.15-67.8-2.11-.09-4.21-.14-6.28-.14h0Z"/><path class="cls-6" d="m170.45,254.8c-59.14,4.49-95.6-36.12-91.65-91.38,23.61-1.41,45.5,3.64,63.87,18.99,22.4,18.72,28.1,44.38,27.78,72.39Z"/><path class="cls-6" d="m86.25,163.19v1c22.25,0,40.5,6.21,55.78,18.99,10.44,8.72,17.67,19.28,22.1,32.27,3.68,10.78,5.42,23.36,5.32,38.42-2.63.18-5.26.27-7.82.27-25.03,0-46.12-8.44-60.98-24.4-15.15-16.28-22.57-39.47-20.92-65.37,2.2-.12,4.38-.18,6.51-.18v-1m0,0c-2.46,0-4.94.08-7.45.23-3.75,52.46,28.91,91.72,82.84,91.72,2.87,0,5.82-.11,8.81-.34.33-28.01-5.38-53.67-27.78-72.39-16.43-13.73-35.66-19.22-56.43-19.22h0Z"/><path class="cls-6" d="m181.04,204.68c-51.45-47.72-34.52-100.51.09-129.96,17.54,15.84,29.42,34.88,31.63,58.79,2.72,29.37-11.93,51.39-31.72,71.17Z"/><path class="cls-6" d="m181.11,76.06c18.62,17.03,28.65,35.87,30.66,57.55,1.26,13.58-1.14,26.22-7.32,38.64-5.05,10.14-12.51,20.03-23.43,31.04-10.94-10.29-19.16-21.26-24.43-32.62-4.92-10.62-7.3-21.61-7.06-32.67.48-22.44,11.98-44.97,31.59-61.94m.02-1.33c-34.61,29.44-51.54,82.24-.09,129.96,19.8-19.78,34.44-41.79,31.72-71.17-2.21-23.91-14.09-42.95-31.63-58.79h0Z"/><path class="cls-2" d="m182.15,329.31c-28.24,0-56.48-.03-84.73.05-2.51,0-3.99-.63-5.31-2.95C61.8,273.44,31.39,220.52.93,167.63c-1.2-2.09-1.27-3.6-.04-5.73C31.36,109.02,61.78,56.11,92.1,3.15,93.49.73,94.97,0,97.66,0c56.23.08,112.47.08,168.7,0,2.55,0,3.96.73,5.27,3.01,30.26,52.86,60.61,105.66,90.99,158.45,1.19,2.08,1.72,3.65.34,6.05-30.43,52.76-60.76,105.57-91.03,158.43-1.42,2.48-2.88,3.45-5.8,3.43-27.99-.13-55.99-.08-83.98-.08Zm.08-320.37c-26.49,0-52.99.04-79.48-.06-2.7-.01-4.17.74-5.55,3.15C68.64,61.97,39.98,111.87,11.27,161.73c-1.28,2.23-1.24,3.84.03,6.05,28.67,49.74,57.28,99.52,85.81,149.34,1.35,2.36,2.76,3.26,5.52,3.26,52.86-.09,105.73-.09,158.59,0,2.78,0,4.18-.98,5.5-3.3,28.59-49.93,57.25-99.82,85.98-149.68,1.16-2.01,1.09-3.4-.05-5.38-28.69-49.87-57.33-99.78-85.89-149.73-1.41-2.47-2.86-3.44-5.8-3.43-26.24.14-52.49.08-78.73.08Z"/><path class="cls-2" d="m97.66,1c27.84.04,56.55.06,85.32.06,27.18,0,55.24-.02,83.4-.05,2.26,0,3.28.59,4.38,2.51,26.37,46.06,55.29,96.41,91,158.45,1.15,1.99,1.44,3.13.34,5.05-29.48,51.11-60.1,104.42-91.03,158.43-1.29,2.25-2.43,2.93-4.88,2.93h-.05c-16.82-.08-33.73-.09-46.58-.09-6.23,0-12.47,0-18.7,0-6.23,0-12.47,0-18.7,0h-17.93s-17.93,0-17.93,0c-14.4,0-31.47,0-48.9.05-2.28,0-3.35-.59-4.41-2.45-28.06-49.01-57.88-100.95-91.18-158.77-1.05-1.82-1.06-2.97-.04-4.74C34.57,105.45,64.41,53.52,92.97,3.64c1.16-2.02,2.25-2.64,4.67-2.64h.02m120.37,6.94c-5.97,0-11.93,0-17.9,0-5.97,0-11.93,0-17.9,0s-11.72,0-17.59,0c-5.86,0-11.72,0-17.58,0-12.99,0-28.42,0-44.31-.07h-.06c-3.08,0-4.86,1.02-6.36,3.66C69.49,58.46,41.38,107.43,10.4,161.23c-1.45,2.52-1.44,4.49.03,7.05,30.26,52.5,58.33,101.35,85.81,149.34,1.55,2.71,3.33,3.76,6.39,3.76,26.36-.04,52.93-.07,78.98-.07s53.35.02,79.62.07c3,0,4.78-1.07,6.35-3.8,28.17-49.19,57.1-99.55,85.97-149.68,1.31-2.27,1.29-4.05-.05-6.38-30.81-53.55-58.9-102.53-85.89-149.73-1.64-2.87-3.43-3.93-6.6-3.93h-.07c-15.57.08-31.12.09-42.93.09M97.64,0C94.97,0,93.49.73,92.1,3.15,61.78,56.11,31.36,109.02.89,161.9c-1.23,2.13-1.16,3.65.04,5.73,30.46,52.89,60.86,105.81,91.18,158.77,1.32,2.31,2.79,2.95,5.27,2.95.01,0,.03,0,.04,0,16.29-.04,32.57-.05,48.86-.05,11.95,0,23.91,0,35.87,0s24.93-.01,37.4-.01c15.53,0,31.05.02,46.58.09.02,0,.04,0,.06,0,2.89,0,4.33-.97,5.74-3.43,30.26-52.86,60.6-105.67,91.03-158.43,1.38-2.4.86-3.98-.34-6.05-30.38-52.79-60.73-105.6-90.99-158.45-1.3-2.28-2.71-3.01-5.25-3.01h-.02c-27.8.03-55.59.05-83.39.05S126.1.04,97.66,0c0,0-.01,0-.02,0h0Zm120.38,8.94c14.31,0,28.63-.02,42.94-.09.02,0,.04,0,.07,0,2.89,0,4.33.98,5.73,3.43,28.56,49.95,57.2,99.86,85.89,149.73,1.14,1.98,1.2,3.37.05,5.38-28.72,49.86-57.38,99.75-85.98,149.68-1.33,2.31-2.71,3.3-5.48,3.3h-.02c-26.54-.05-53.07-.07-79.6-.07s-52.66.02-78.98.07h-.02c-2.74,0-4.15-.91-5.5-3.26-28.53-49.82-57.14-99.6-85.81-149.34-1.27-2.2-1.31-3.82-.03-6.05C39.98,111.87,68.64,61.97,97.2,12.02c1.37-2.4,2.83-3.15,5.5-3.15.02,0,.04,0,.06,0,14.77.06,29.54.07,44.31.07,11.72,0,23.45,0,35.17,0s23.86.01,35.79.01h0Z"/><path class="cls-2" d="m285.59,163.34c1.1,25.74-4.37,48.96-22.15,67.8-18.84,19.95-43.23,24.85-69.92,23.99-.44-25.78,4.06-49.73,23-68.39,18.96-18.68,42.68-24.57,69.07-23.4Z"/><path class="cls-2" d="m279.31,163.2v1c1.73,0,3.52.03,5.32.1,1.01,27.82-6.16,49.47-21.92,66.15-15.31,16.22-35.51,23.77-63.58,23.77-1.5,0-3.06-.02-4.63-.06-.36-30.28,6.66-50.89,22.72-66.71,15.88-15.65,36.19-23.25,62.09-23.25v-1m0,0c-23.87,0-45.34,6.35-62.79,23.54-18.94,18.67-23.44,42.61-23,68.39,1.88.06,3.75.09,5.61.09,24.49,0,46.8-5.54,64.31-24.09,17.78-18.84,23.25-42.06,22.15-67.8-2.11-.09-4.21-.14-6.28-.14h0Z"/><path class="cls-2" d="m170.45,254.8c-59.14,4.49-95.6-36.12-91.65-91.38,23.61-1.41,45.5,3.64,63.87,18.99,22.4,18.72,28.1,44.38,27.78,72.39Z"/><path class="cls-2" d="m86.25,163.19v1c22.25,0,40.5,6.21,55.78,18.99,10.44,8.72,17.67,19.28,22.1,32.27,3.68,10.78,5.42,23.36,5.32,38.42-2.63.18-5.26.27-7.82.27-25.03,0-46.12-8.44-60.98-24.4-15.15-16.28-22.57-39.47-20.92-65.37,2.2-.12,4.38-.18,6.51-.18v-1m0,0c-2.46,0-4.94.08-7.45.23-3.75,52.46,28.91,91.72,82.84,91.72,2.87,0,5.82-.11,8.81-.34.33-28.01-5.38-53.67-27.78-72.39-16.43-13.73-35.66-19.22-56.43-19.22h0Z"/><path class="cls-2" d="m181.04,204.68c-51.45-47.72-34.52-100.51.09-129.96,17.54,15.84,29.42,34.88,31.63,58.79,2.72,29.37-11.93,51.39-31.72,71.17Z"/><path class="cls-2" d="m181.11,76.06c18.62,17.03,28.65,35.87,30.66,57.55,1.26,13.58-1.14,26.22-7.32,38.64-5.05,10.14-12.51,20.03-23.43,31.04-10.94-10.29-19.16-21.26-24.43-32.62-4.92-10.62-7.3-21.61-7.06-32.67.48-22.44,11.98-44.97,31.59-61.94m.02-1.33c-34.61,29.44-51.54,82.24-.09,129.96,19.8-19.78,34.44-41.79,31.72-71.17-2.21-23.91-14.09-42.95-31.63-58.79h0Z"/><path class="cls-4" d="m182.15,329.31c-28.24,0-56.48-.03-84.73.05-2.51,0-3.99-.63-5.31-2.95C61.8,273.44,31.39,220.52.93,167.63c-1.2-2.09-1.27-3.6-.04-5.73C31.36,109.02,61.78,56.11,92.1,3.15,93.49.73,94.97,0,97.66,0c56.23.08,112.47.08,168.7,0,2.55,0,3.96.73,5.27,3.01,30.26,52.86,60.61,105.66,90.99,158.45,1.19,2.08,1.72,3.65.34,6.05-30.43,52.76-60.76,105.57-91.03,158.43-1.42,2.48-2.88,3.45-5.8,3.43-27.99-.13-55.99-.08-83.98-.08Zm.08-320.37c-26.49,0-52.99.04-79.48-.06-2.7-.01-4.17.74-5.55,3.15C68.64,61.97,39.98,111.87,11.27,161.73c-1.28,2.23-1.24,3.84.03,6.05,28.67,49.74,57.28,99.52,85.81,149.34,1.35,2.36,2.76,3.26,5.52,3.26,52.86-.09,105.73-.09,158.59,0,2.78,0,4.18-.98,5.5-3.3,28.59-49.93,57.25-99.82,85.98-149.68,1.16-2.01,1.09-3.4-.05-5.38-28.69-49.87-57.33-99.78-85.89-149.73-1.41-2.47-2.86-3.44-5.8-3.43-26.24.14-52.49.08-78.73.08Z"/><path class="cls-4" d="m285.59,163.34c1.1,25.74-4.37,48.96-22.15,67.8-18.84,19.95-43.23,24.85-69.92,23.99-.44-25.78,4.06-49.73,23-68.39,18.96-18.68,42.68-24.57,69.07-23.4Z"/><path class="cls-4" d="m170.45,254.8c-59.14,4.49-95.6-36.12-91.65-91.38,23.61-1.41,45.5,3.64,63.87,18.99,22.4,18.72,28.1,44.38,27.78,72.39Z"/><path class="cls-4" d="m181.04,204.68c-51.45-47.72-34.52-100.51.09-129.96,17.54,15.84,29.42,34.88,31.63,58.79,2.72,29.37-11.93,51.39-31.72,71.17Z"/></g></svg>