<?xml version="1.0" encoding="UTF-8"?><svg id="Layer_2" xmlns="http://www.w3.org/2000/svg" xmlns:xlink="http://www.w3.org/1999/xlink" viewBox="0 0 339 508.7"><defs><style>.cls-1{clip-path:url(#clippath);}.cls-2{fill:#ecb83d;}.cls-3{fill:none;stroke:#ecb83d;stroke-miterlimit:10;stroke-width:8px;}</style><clipPath id="clippath"><path class="cls-3" d="m335,169.5c0-91.4-74.1-165.5-165.5-165.5S4,78.1,4,169.5c0,32.11,9.15,62.07,24.98,87.44.34,1.47.94,3.01,1.81,4.61l128.83,235.89c2.08,3.82,4.7,6.1,7.41,6.9.22.07.45.13.67.18.1.02.2.05.31.06.39.07.79.1,1.19.1,0,0,0,0,0,0s0,0,0,0c.4,0,.8-.04,1.19-.1.1-.02.21-.04.31-.06.22-.05.45-.11.67-.18,2.72-.8,5.33-3.08,7.41-6.9l128.83-235.89c.51-.94.93-1.86,1.26-2.76,16.54-25.76,26.13-56.41,26.13-89.29Z"/></clipPath></defs><g id="Layer_1-2"><g class="cls-1"><rect x="-88.13" y="-80.99" width="515.25" height="687.57"/><path class="cls-2" d="m272.97,162.46c1.1,25.74-4.37,48.96-22.15,67.8-18.84,19.95-43.23,24.85-69.92,23.99-.44-25.78,4.06-49.73,23-68.39,18.96-18.68,42.68-24.57,69.07-23.4h0Z"/><path class="cls-2" d="m157.83,253.92c-59.14,4.49-95.6-36.12-91.65-91.38,23.61-1.41,45.5,3.64,63.87,18.99,22.4,18.72,28.1,44.38,27.78,72.39h0Z"/><path class="cls-2" d="m168.42,203.8c-51.45-47.72-34.52-100.51.09-129.96,17.54,15.84,29.42,34.88,31.63,58.79,2.72,29.37-11.93,51.39-31.72,71.17h0Z"/></g><path class="cls-3" d="m335,169.5c0-91.4-74.1-165.5-165.5-165.5S4,78.1,4,169.5c0,32.11,9.15,62.07,24.98,87.44.34,1.47.94,3.01,1.81,4.61l128.83,235.89c2.08,3.82,4.7,6.1,7.41,6.9.22.07.45.13.67.18.1.02.2.05.31.06.39.07.79.1,1.19.1,0,0,0,0,0,0s0,0,0,0c.4,0,.8-.04,1.19-.1.1-.02.21-.04.31-.06.22-.05.45-.11.67-.18,2.72-.8,5.33-3.08,7.41-6.9l128.83-235.89c.51-.94.93-1.86,1.26-2.76,16.54-25.76,26.13-56.41,26.13-89.29Z"/></g></svg>